<?xml version="1.0" encoding="UTF-8"?>
<svg version="1.1" xmlns="http://www.w3.org/2000/svg" width="600" height="600">
<path d="M0 0 C3.59721356 1.4954708 5.63097221 3.52706308 8.1875 6.4375 C8.98027344 7.33984375 9.77304687 8.2421875 10.58984375 9.171875 C13.61253606 12.71876192 16.5533643 16.32644853 19.484375 19.94921875 C22.42925052 23.52056624 25.45720087 27.0121164 28.5 30.5 C32.99520733 35.65564063 37.38623664 40.87511424 41.69140625 46.19140625 C44.41344185 49.50298593 47.20143139 52.7531 50 56 C54.31939586 61.01310059 58.55097436 66.0853771 62.72265625 71.22265625 C65.28204272 74.34396633 67.88604122 77.42440998 70.5 80.5 C74.55440409 85.27402598 78.55221644 90.08879776 82.5078125 94.9453125 C85.55603688 98.68153736 88.62104748 102.4037321 91.6875 106.125 C92.28046875 106.84478027 92.8734375 107.56456055 93.484375 108.30615234 C95.3227614 110.53756288 97.16134962 112.76880697 99 115 C114.48265269 133.7881215 114.48265269 133.7881215 119.67578125 140.15234375 C121.44033896 142.31429765 123.20920332 144.47246176 124.98046875 146.62890625 C131.14219855 154.14942915 137.17313869 161.75041544 143.04711914 169.49804688 C145.85945483 173.20669571 148.69299193 176.89445248 151.578125 180.546875 C167.12544779 200.23721073 180.41664916 221.21174303 191 244 C191.3309668 244.71027344 191.66193359 245.42054688 192.00292969 246.15234375 C201.1939226 266.17023836 206.82349043 287.23369011 210 309 C210.103125 309.67933594 210.20625 310.35867188 210.3125 311.05859375 C211.3261752 318.70460094 211.24378344 326.42542742 211.25 334.125 C211.25067474 334.87743988 211.25134949 335.62987976 211.25204468 336.40512085 C211.16748613 396.03312373 186.37224151 450.89278048 144.9375 493.3125 C139.89892633 498.23072557 134.5307768 502.65011879 129 507 C128.02546875 507.79148437 127.0509375 508.58296875 126.046875 509.3984375 C117.19482303 516.4489412 107.77895977 522.32260528 98 528 C97.06099854 528.55300781 97.06099854 528.55300781 96.10302734 529.1171875 C47.13778351 557.71944906 -13.67749319 562.55988025 -68 549 C-126.04603548 532.9193127 -174.31045362 494.87668837 -204.2734375 442.78613281 C-233.42211205 391.26805878 -239.43520461 329.78601051 -224.08203125 272.984375 C-221.19954172 262.94935097 -217.45843217 253.32402511 -213.22021484 243.79003906 C-212.06565082 241.15011157 -211.0074159 238.48733573 -209.95703125 235.8046875 C-205.67424043 225.58881775 -205.67424043 225.58881775 -201.22314453 222.94433594 C-197.00837652 221.24087155 -192.72727876 220.63283906 -188.22314453 220.21337891 C-186.11411519 220.01095285 -184.05370765 219.70592172 -181.96484375 219.35546875 C-160.12868498 215.90793465 -137.32893922 217.37424768 -116 223 C-115.95319092 222.08468506 -115.90638184 221.16937012 -115.8581543 220.22631836 C-115.33728219 211.23136818 -114.33245349 202.45292779 -112.8125 193.5625 C-112.59110352 192.2640918 -112.36970703 190.96568359 -112.14160156 189.62792969 C-104.57068692 146.13862981 -88.08154175 104.40838841 -63 68 C-62.58008789 67.38334473 -62.16017578 66.76668945 -61.72753906 66.13134766 C-55.67859494 57.27986775 -49.04786021 49.07181517 -42 41 C-41.36191406 40.26136719 -40.72382813 39.52273437 -40.06640625 38.76171875 C-38.3899986 36.82978476 -36.69840259 34.91261553 -35 33 C-34.30390625 32.21109375 -33.6078125 31.4221875 -32.890625 30.609375 C-22.79345258 19.25876049 -12.08084509 9.20045841 0 0 Z " fill="#DD2C00" transform="translate(307,21)"/>
<path d="M0 0 C0.74958984 0.24733887 1.49917969 0.49467773 2.27148438 0.74951172 C26.76772885 8.89957802 46.93678365 21.80597323 66 39 C66.74894531 39.67546875 67.49789062 40.3509375 68.26953125 41.046875 C74.57601665 47.05794459 79.82135304 54.02040414 85 61 C85.63856934 61.85609863 85.63856934 61.85609863 86.29003906 62.72949219 C99.42262989 80.60583358 107.98590979 101.30863571 113.25 122.75 C113.49544556 123.74169189 113.49544556 123.74169189 113.74584961 124.75341797 C116.19159383 135.3485961 116.18645928 146.1411361 116.18530273 156.95947266 C116.18748301 159.23228887 116.20569043 161.50461321 116.22460938 163.77734375 C116.28088084 177.69669547 114.73358793 190.87970249 110.875 204.3125 C110.57150635 205.38064941 110.2680127 206.44879883 109.95532227 207.54931641 C106.17077447 220.40849508 100.82789139 232.38291862 94.03125 243.93359375 C92.77673155 246.06247601 92.77673155 246.06247601 93 249 C95.04289833 251.03327623 95.04289833 251.03327623 97.75 253.0625 C98.77222656 253.866875 99.79445313 254.67125 100.84765625 255.5 C101.37891113 255.91636719 101.91016602 256.33273437 102.45751953 256.76171875 C104.76873085 258.61712613 106.96235401 260.60516504 109.1875 262.5625 C132.9387456 282.38613077 160.84356101 296.63376152 189 309 C161.05605136 331.26335933 107.02036826 332.71537913 73.375 329.3125 C15.96122593 322.59652534 -38.91183575 294.6527076 -75.42431641 249.22802734 C-112.96698436 201.62514528 -130.26934471 142.94862899 -124.28198242 82.53979492 C-121.57053755 60.08918508 -115.39489738 38.42873891 -106.22021484 17.79003906 C-105.06565082 15.15011157 -104.0074159 12.48733573 -102.95703125 9.8046875 C-98.67424043 -0.41118225 -98.67424043 -0.41118225 -94.22314453 -3.05566406 C-90.00837652 -4.75912845 -85.72727876 -5.36716094 -81.22314453 -5.78662109 C-79.11411519 -5.98904715 -77.05370765 -6.29407828 -74.96484375 -6.64453125 C-49.82759734 -10.61324731 -24.01359749 -8.16658968 0 0 Z " fill="#FFC300" transform="translate(200,247)"/>
<path d="M0 0 C29.15119228 6.99592413 52.88068926 21.04953551 75 41 C76.12341797 42.01320313 76.12341797 42.01320313 77.26953125 43.046875 C83.57601665 49.05794459 88.82135304 56.02040414 94 63 C94.42571289 63.57073242 94.85142578 64.14146484 95.29003906 64.72949219 C108.42262989 82.60583358 116.98590979 103.30863571 122.25 124.75 C122.41363037 125.41112793 122.57726074 126.07225586 122.74584961 126.75341797 C125.19159383 137.3485961 125.18645928 148.1411361 125.18530273 158.95947266 C125.18748301 161.23228887 125.20569043 163.50461321 125.22460938 165.77734375 C125.28088084 179.69669547 123.73358793 192.87970249 119.875 206.3125 C119.57150635 207.38064941 119.2680127 208.44879883 118.95532227 209.54931641 C115.17077447 222.40849508 109.82789139 234.38291862 103.03125 245.93359375 C101.77673155 248.06247601 101.77673155 248.06247601 102 251 C104.04289833 253.03327623 104.04289833 253.03327623 106.75 255.0625 C108.28333984 256.2690625 108.28333984 256.2690625 109.84765625 257.5 C110.37891113 257.91636719 110.91016602 258.33273437 111.45751953 258.76171875 C113.76873085 260.61712613 115.96235401 262.60516504 118.1875 264.5625 C141.9387456 284.38613077 169.84356101 298.63376152 198 311 C170.05605136 333.26335933 116.02036826 334.71537913 82.375 331.3125 C62.83304292 329.0265801 41.97923176 325.26029557 24 317 C23.67 316.34 23.34 315.68 23 315 C24.09957031 314.50371094 25.19914062 314.00742187 26.33203125 313.49609375 C56.24139142 299.83216012 81.45785669 278.89653162 99 251 C97.62538395 247.89637137 96.0618997 245.84290958 93.62109375 243.49609375 C92.6168335 242.51721191 92.6168335 242.51721191 91.59228516 241.51855469 C90.88120605 240.83180664 90.17012695 240.14505859 89.4375 239.4375 C83.95242028 234.0485217 78.80155387 228.66386871 74.0546875 222.609375 C71.8665389 219.83050948 69.5632292 217.17536412 67.25 214.5 C31.61480262 171.77101528 9.6282925 116.76059776 2 62 C1.82428467 60.76975098 1.82428467 60.76975098 1.64501953 59.51464844 C-1.01669984 39.84244615 -0.1891572 19.80330389 0 0 Z " fill="#FE9000" transform="translate(191,245)"/>
</svg>
