<?xml version="1.0" encoding="UTF-8"?>
<svg version="1.1" xmlns="http://www.w3.org/2000/svg" width="157" height="111">
<path d="M0 0 C0.65784988 -0.00095673 1.31569977 -0.00191345 1.9934845 -0.00289917 C3.37773739 -0.00357743 4.76199352 -0.00174791 6.14624023 0.00244141 C8.27269539 0.0078205 10.39894179 0.00247138 12.52539062 -0.00390625 C13.87109422 -0.00324591 15.21679768 -0.00196566 16.5625 0 C17.78864014 0.00112793 19.01478027 0.00225586 20.27807617 0.00341797 C23.08203125 0.1328125 23.08203125 0.1328125 24.08203125 1.1328125 C23.57464021 8.80810864 21.81545412 16.10771436 20.01953125 23.5703125 C19.71081117 24.87056036 19.40263672 26.17093787 19.0949707 27.47143555 C18.44026101 30.23581413 17.78270103 32.99949254 17.12304688 35.76269531 C15.4980642 42.57524098 13.89805711 49.3936795 12.29519653 56.2114563 C11.7804413 58.39894937 11.26432372 60.58611662 10.74780273 62.77319336 C10.58588943 63.45966446 10.42397614 64.14613556 10.25715637 64.85340881 C9.79756505 66.80192337 9.33751172 68.75032895 8.87744141 70.69873047 C8.20612177 73.59706749 7.57417688 76.49918005 6.9609375 79.41015625 C5.36530457 86.16854817 1.68252709 90.17952132 -3.91796875 94.1328125 C-8.72132087 95.79544213 -12.87752823 96.37317197 -17.9453125 96.328125 C-19.23115234 96.32167969 -20.51699219 96.31523438 -21.84179688 96.30859375 C-23.17969029 96.29188851 -24.51758092 96.27495869 -25.85546875 96.2578125 C-27.22069658 96.24776572 -28.58593155 96.23864286 -29.95117188 96.23046875 C-33.27362074 96.20698855 -36.59570196 96.17414609 -39.91796875 96.1328125 C-40.0783924 90.06902117 -39.67236247 84.79403183 -38.23046875 78.91796875 C-38.05244217 78.15670685 -37.87441559 77.39544495 -37.69099426 76.6111145 C-37.1098761 74.13671929 -36.51455596 71.66601969 -35.91796875 69.1953125 C-35.506671 67.46737847 -35.09611781 65.73926705 -34.6862793 64.01098633 C-34.05638412 61.35602308 -33.42551721 58.70132374 -32.79045105 56.04759216 C-31.38522693 50.16362243 -30.04879614 44.26764719 -28.75 38.359375 C-28.23993039 36.07344716 -27.72799863 33.78794694 -27.21508789 31.50265503 C-26.8963282 30.0672127 -26.58333418 28.63047575 -26.27661133 27.19241333 C-22.07128021 7.53399806 -22.07128021 7.53399806 -13.79296875 2.0703125 C-9.00188671 0.50800314 -5.08587141 0.00466563 0 0 Z M-18.91796875 33.1328125 C-19.92732291 37.193047 -20.92380545 41.25633414 -21.91796875 45.3203125 C-22.20414063 46.47080078 -22.4903125 47.62128906 -22.78515625 48.80664062 C-23.05585937 49.91845703 -23.3265625 51.03027344 -23.60546875 52.17578125 C-23.98251953 53.70755005 -23.98251953 53.70755005 -24.3671875 55.27026367 C-24.88777388 57.97588218 -25.02383262 60.38696838 -24.91796875 63.1328125 C-23.92796875 63.1328125 -22.93796875 63.1328125 -21.91796875 63.1328125 C-19.69861802 59.41003063 -17.89327938 56.35915858 -16.91796875 52.1328125 C-14.61463101 50.98114363 -13.26752202 51.00847216 -10.70703125 50.9921875 C-9.87429687 50.97285156 -9.0415625 50.95351563 -8.18359375 50.93359375 C-6.43121879 50.89989423 -4.67847826 50.88152222 -2.92578125 50.87890625 C2.3430581 50.75929636 2.3430581 50.75929636 6.62890625 47.875 C8.02479872 45.24081582 8.70392557 43.45396256 8.95703125 40.5078125 C9.03695312 39.75242187 9.116875 38.99703125 9.19921875 38.21875 C9.24147363 35.82255697 9.24147363 35.82255697 7.08203125 33.1328125 C4.36719531 32.71543378 4.36719531 32.71543378 1.19921875 32.83984375 C-0.55068359 32.8543457 -0.55068359 32.8543457 -2.3359375 32.86914062 C-4.17091797 32.9068457 -4.17091797 32.9068457 -6.04296875 32.9453125 C-7.27402344 32.95884766 -8.50507812 32.97238281 -9.7734375 32.98632812 C-12.82204718 33.02177707 -15.86979375 33.07119171 -18.91796875 33.1328125 Z " fill="#F06E22" transform="translate(83.91796875,10.8671875)"/>
<path d="M0 0 C2.10672779 -0.00220139 4.21294374 -0.02042953 6.31958008 -0.03930664 C7.65746892 -0.04223822 8.99536023 -0.04422459 10.33325195 -0.04516602 C11.54779053 -0.0492749 12.7623291 -0.05338379 14.01367188 -0.05761719 C16.9152832 0.18530273 16.9152832 0.18530273 18.9152832 2.18530273 C18.8269043 4.07495117 18.8269043 4.07495117 18.3137207 6.54467773 C18.11230469 7.53274414 17.91088867 8.52081055 17.70336914 9.53881836 C17.44330078 10.7421582 17.18323242 11.94549805 16.9152832 13.18530273 C16.5975082 14.69759017 16.28015435 16.20996614 15.96313477 17.72241211 C15.04658333 22.06070565 14.09863205 26.39152706 13.13891602 30.72045898 C12.73848613 32.53643793 12.34300834 34.35351564 11.95239258 36.17163086 C11.38100073 38.8298451 10.79434594 41.48428958 10.2043457 44.13842773 C10.03440094 44.94274231 9.86445618 45.74705688 9.68936157 46.57574463 C8.2027 53.13169686 5.85607564 59.0679757 0.5402832 63.49780273 C-0.00370117 63.96831055 -0.54768555 64.43881836 -1.1081543 64.92358398 C-5.80175956 67.9196996 -10.47532166 68.44039061 -15.9440918 68.45092773 C-17.86415039 68.45479492 -17.86415039 68.45479492 -19.82299805 68.45874023 C-20.81033936 68.45245605 -20.81033936 68.45245605 -21.81762695 68.44604492 C-23.84315423 68.4352578 -25.86780918 68.44601047 -27.89331055 68.45874023 C-29.16819336 68.45616211 -30.44307617 68.45358398 -31.7565918 68.45092773 C-33.50601074 68.44754395 -33.50601074 68.44754395 -35.29077148 68.4440918 C-38.0847168 68.18530273 -38.0847168 68.18530273 -40.0847168 66.18530273 C-39.67970128 60.48984482 -38.47422334 55.02418789 -37.15893555 49.47827148 C-36.97007278 48.67222977 -36.78121002 47.86618805 -36.58662415 47.03572083 C-36.18783652 45.34019954 -35.7868588 43.64519201 -35.38378906 41.95068359 C-34.77677558 39.39201877 -34.18135596 36.83084125 -33.58666992 34.26928711 C-27.81890706 9.71079218 -27.81890706 9.71079218 -21.0847168 4.18530273 C-20.5897168 3.60780273 -20.0947168 3.03030273 -19.5847168 2.43530273 C-14.75238896 -1.59163713 -5.98415916 -0.00070278 0 0 Z M-22.0847168 19.18530273 C-21.7547168 20.50530273 -21.4247168 21.82530273 -21.0847168 23.18530273 C-18.4447168 23.84530273 -15.8047168 24.50530273 -13.0847168 25.18530273 C-13.44426446 29.88780775 -13.83732023 34.32669112 -15.1472168 38.87280273 C-16.15951298 42.44958259 -16.2356687 45.48698121 -16.0847168 49.18530273 C-11.87763163 46.50363421 -10.40477961 44.25400746 -9.2722168 39.39038086 C-9.1278418 38.68333008 -8.9834668 37.9762793 -8.8347168 37.24780273 C-8.67487305 36.54461914 -8.5150293 35.84143555 -8.3503418 35.11694336 C-7.533485 31.48533416 -6.81471656 27.83530156 -6.0847168 24.18530273 C-2.1247168 24.18530273 1.8352832 24.18530273 5.9152832 24.18530273 C5.5852832 22.53530273 5.2552832 20.88530273 4.9152832 19.18530273 C-3.9947168 19.18530273 -12.9047168 19.18530273 -22.0847168 19.18530273 Z " fill="#11AB4C" transform="translate(134.084716796875,24.814697265625)"/>
<path d="M0 0 C1.27791399 3.83374198 0.39925123 6.58253985 -0.51171875 10.38671875 C-0.76596367 11.48872368 -0.76596367 11.48872368 -1.02534485 12.61299133 C-1.5719284 14.97297003 -2.12969466 17.33015146 -2.6875 19.6875 C-3.04432292 21.2244463 -3.40044967 22.76155441 -3.75585938 24.29882812 C-4.6417724 28.11636878 -5.54597853 31.92924725 -6.4598999 35.74017334 C-6.82041542 37.24860222 -7.17787184 38.75776546 -7.5322876 40.26763916 C-8.04169373 42.43671761 -8.56069068 44.6032945 -9.08203125 46.76953125 C-9.37956299 48.01968018 -9.67709473 49.2698291 -9.98364258 50.55786133 C-10.98913982 53.96321937 -12.31215148 56.88376526 -14 60 C-14.66 60 -15.32 60 -16 60 C-16 60.66 -16 61.32 -16 62 C-24.2868137 67.47720101 -32.03498029 67.61468255 -41.625 67.3125 C-43.0246993 67.28736056 -44.4244426 67.26455743 -45.82421875 67.24414062 C-49.2172912 67.18563938 -52.60805895 67.10370469 -56 67 C-56.70624498 56.67405209 -54.90893635 47.65014697 -52.37451172 37.70556641 C-51.74848115 35.24402791 -51.14801545 32.77725961 -50.55078125 30.30859375 C-44.82194881 7.01274084 -44.82194881 7.01274084 -35 1 C-24.4569237 -3.16516594 -10.99161507 -1.44830693 0 0 Z M-23.9375 17.1875 C-25.27844727 17.21553711 -25.27844727 17.21553711 -26.64648438 17.24414062 C-30.5073133 17.40751646 -33.42044444 17.73322046 -36.953125 19.359375 C-40.15433252 23.48917707 -40.82048154 28.00483212 -41.8125 33.0625 C-42.02841797 34.06861328 -42.24433594 35.07472656 -42.46679688 36.11132812 C-43.62150754 41.51139053 -43.62150754 41.51139053 -44 47 C-42.07690578 46.96044102 -42.07690578 46.96044102 -40 46 C-37.71094011 42.32115375 -37 40.38448044 -37 36 C-35.80761719 35.96261719 -34.61523438 35.92523438 -33.38671875 35.88671875 C-31.820281 35.82105968 -30.25387616 35.75461232 -28.6875 35.6875 C-27.90181641 35.66494141 -27.11613281 35.64238281 -26.30664062 35.61914062 C-25.1706543 35.5659668 -25.1706543 35.5659668 -24.01171875 35.51171875 C-23.31522217 35.48553467 -22.61872559 35.45935059 -21.90112305 35.43237305 C-19.48968296 34.88393843 -18.54382071 33.89138402 -17 32 C-17 31.67 -17 31.34 -17 31 C-22.94 30.67 -28.88 30.34 -35 30 C-34.34 28.02 -33.68 26.04 -33 24 C-32.44538086 23.98541748 -31.89076172 23.97083496 -31.31933594 23.95581055 C-28.79553758 23.88113103 -26.27303346 23.78453975 -23.75 23.6875 C-22.87730469 23.66494141 -22.00460938 23.64238281 -21.10546875 23.61914062 C-16.04115738 23.42210734 -16.04115738 23.42210734 -11.390625 21.58203125 C-9.77993009 20.10069594 -9.77993009 20.10069594 -10 18 C-14.67560736 16.63869662 -19.11628724 16.98329932 -23.9375 17.1875 Z " fill="#0C5FA6" transform="translate(56,26)"/>
<path d="M0 0 C0.33 0.66 0.66 1.32 1 2 C3.08807 2.61272305 3.08807 2.61272305 5.5 3 C7.96875 3.4375 7.96875 3.4375 10 4 C13.19555931 10.39111861 9.99246643 21.35844525 8 28 C10.64 28 13.28 28 16 28 C16 27.01 16 26.02 16 25 C16.66 24.34 17.32 23.68 18 23 C18.34541851 20.66842508 18.67794257 18.33491639 19 16 C19.33 15.360625 19.66 14.72125 20 14.0625 C21.56591011 10.83281041 21.64422081 7.55779191 22 4 C27.94 3.505 27.94 3.505 34 3 C34.33 2.01 34.66 1.02 35 0 C36.60914436 7.15175273 35.55167065 13.19554494 33 20 C32.34 20 31.68 20 31 20 C31 20.99 31 21.98 31 23 C30.34 23 29.68 23 29 23 C29.226875 23.680625 29.45375 24.36125 29.6875 25.0625 C30.11996949 29.12771323 28.94097971 31.45269225 27 35 C24.8125 36.4375 24.8125 36.4375 23 37 C23 37.66 23 38.32 23 39 C21.68 38.67 20.36 38.34 19 38 C18.62834717 38.65194336 18.25669434 39.30388672 17.8737793 39.97558594 C16 42 16 42 13.27270508 42.45410156 C12.19915771 42.4331543 11.12561035 42.41220703 10.01953125 42.390625 C8.85615234 42.37773438 7.69277344 42.36484375 6.49414062 42.3515625 C5.27919922 42.31804687 4.06425781 42.28453125 2.8125 42.25 C1.58595703 42.23195312 0.35941406 42.21390625 -0.90429688 42.1953125 C-3.93697759 42.14811124 -6.96810087 42.08227677 -10 42 C-10.1172229 36.03335437 -9.83024984 30.48950626 -8.75 24.625 C-8.55410278 23.53070679 -8.55410278 23.53070679 -8.35424805 22.41430664 C-7.20414286 16.358065 -5.41589758 10.67797248 -3 5 C-2.34 5 -1.68 5 -1 5 C-0.67 3.35 -0.34 1.7 0 0 Z " fill="#0FAE4B" transform="translate(108,48)"/>
<path d="M0 0 C0.99 0 1.98 0 3 0 C4.69204742 7.38262033 3.05587537 13.92169215 1.30444336 21.14624023 C0.81213512 23.18901401 0.3491889 25.23696307 -0.11132812 27.28710938 C-0.4201426 28.60197059 -0.73063257 29.91643964 -1.04296875 31.23046875 C-1.32164795 32.41020264 -1.60032715 33.58993652 -1.88745117 34.80541992 C-3.08586452 38.24655195 -4.47897066 40.38554229 -7 43 C-7.66 43 -8.32 43 -9 43 C-9 43.66 -9 44.32 -9 45 C-15.65402916 48.39491284 -20.98698477 48.0049474 -28.34375 47.328125 C-32.59352623 46.94673483 -36.73774946 46.92522367 -41 47 C-42.50934217 43.98131566 -42.17510672 41.32702771 -42 38 C-41.34 37.01 -40.68 36.02 -40 35 C-39.46375 35.33 -38.9275 35.66 -38.375 36 C-35.4608939 37.22699204 -33.13132292 37.14233286 -30 37 C-29.87625 36.195625 -29.7525 35.39125 -29.625 34.5625 C-29.41875 33.716875 -29.2125 32.87125 -29 32 C-28.34 31.67 -27.68 31.34 -27 31 C-26.34444881 28.47266765 -26.34444881 28.47266765 -26 26 C-25.34 26 -24.68 26 -24 26 C-23.67 25.01 -23.34 24.02 -23 23 C-22.09636719 22.89042969 -21.19273438 22.78085938 -20.26171875 22.66796875 C-19.08222656 22.50941406 -17.90273438 22.35085937 -16.6875 22.1875 C-15.51574219 22.03667969 -14.34398437 21.88585937 -13.13671875 21.73046875 C-10.00579726 21.00135005 -8.90354807 20.50828536 -7 18 C-7.495 17.01 -7.495 17.01 -8 16 C-10.91116938 15.56711339 -10.91116938 15.56711339 -14.3125 15.4375 C-21.51052059 15.04253582 -21.51052059 15.04253582 -25 14 C-24.125 8.125 -24.125 8.125 -23 7 C-21.62108277 6.86776232 -20.2361405 6.79684002 -18.8515625 6.75390625 C-18.01109375 6.72103516 -17.170625 6.68816406 -16.3046875 6.65429688 C-14.52616245 6.59337073 -12.74751018 6.53604626 -10.96875 6.48242188 C-10.12570313 6.44826172 -9.28265625 6.41410156 -8.4140625 6.37890625 C-7.6401416 6.3538501 -6.8662207 6.32879395 -6.06884766 6.30297852 C-3.69537475 6.10622971 -3.69537475 6.10622971 -1 4 C-0.27617533 1.94074861 -0.27617533 1.94074861 0 0 Z " fill="#0465B0" transform="translate(46,42)"/>
<path d="M0 0 C1.73443359 0.00676758 1.73443359 0.00676758 3.50390625 0.01367188 C6.33596009 0.02537458 9.16798702 0.04330714 12 0.0625 C11.34 6.0025 10.68 11.9425 10 18.0625 C9.34 18.0625 8.68 18.0625 8 18.0625 C8 18.7225 8 19.3825 8 20.0625 C7.34 20.0625 6.68 20.0625 6 20.0625 C6.495 21.5475 6.495 21.5475 7 23.0625 C6.01 23.7225 5.02 24.3825 4 25.0625 C4 24.4025 4 23.7425 4 23.0625 C2.39504433 23.17692461 0.79101881 23.30444694 -0.8125 23.4375 C-1.70582031 23.50710937 -2.59914063 23.57671875 -3.51953125 23.6484375 C-6.24398499 23.92895036 -6.24398499 23.92895036 -9 26.0625 C-12.40949225 26.34782827 -15.77693369 26.47714912 -19.1953125 26.54101562 C-23.29282288 26.66185318 -23.29282288 26.66185318 -26.92578125 28.3671875 C-28.63418369 31.06335716 -29.24586394 33.9879453 -30 37.0625 C-31.98 37.5575 -31.98 37.5575 -34 38.0625 C-34.20545925 32.82328923 -34.11829672 28.92212189 -32 24.0625 C-31.896875 22.825 -31.79375 21.5875 -31.6875 20.3125 C-31.11078781 15.25665644 -29.32437069 10.9422938 -26 7.0625 C-23.35981548 5.68107012 -20.95249347 5.27168476 -18 5.0625 C-17.05125 4.98 -16.1025 4.8975 -15.125 4.8125 C-13 5.0625 -13 5.0625 -11 7.0625 C-7.93008319 6.89807723 -7.93008319 6.89807723 -5 6.0625 C-4.67 5.4025 -4.34 4.7425 -4 4.0625 C-9.28 4.0625 -14.56 4.0625 -20 4.0625 C-20.33 3.0725 -20.66 2.0825 -21 1.0625 C-13.97942879 -0.03016243 -7.09531697 -0.05282882 0 0 Z " fill="#F16E22" transform="translate(92,13.9375)"/>
<path d="M0 0 C0.65784988 -0.00095673 1.31569977 -0.00191345 1.9934845 -0.00289917 C3.37773739 -0.00357743 4.76199352 -0.00174791 6.14624023 0.00244141 C8.27269539 0.0078205 10.39894179 0.00247138 12.52539062 -0.00390625 C13.87109422 -0.00324591 15.21679768 -0.00196566 16.5625 0 C17.78864014 0.00112793 19.01478027 0.00225586 20.27807617 0.00341797 C23.08203125 0.1328125 23.08203125 0.1328125 24.08203125 1.1328125 C23.57399682 8.99485344 21.73014095 16.48942196 19.89453125 24.1328125 C19.58216223 25.44992859 19.27023779 26.76715019 18.95874023 28.08447266 C18.16322403 31.44222961 17.36111047 34.79836736 16.55639648 38.15393066 C15.79723671 41.32087332 15.0416201 44.48866248 14.28515625 47.65625 C12.89120986 53.48348939 11.489926 59.30892804 10.08203125 65.1328125 C9.75203125 65.1328125 9.42203125 65.1328125 9.08203125 65.1328125 C9.08203125 60.1828125 9.08203125 55.2328125 9.08203125 50.1328125 C8.75203125 50.4628125 8.42203125 50.7928125 8.08203125 51.1328125 C3.50764495 54.64254874 -0.68997674 54.66726023 -6.23046875 54.8203125 C-7.06642578 54.85447266 -7.90238281 54.88863281 -8.76367188 54.92382812 C-10.81464647 55.00586711 -12.86628413 55.0710276 -14.91796875 55.1328125 C-14.91796875 57.7728125 -14.91796875 60.4128125 -14.91796875 63.1328125 C-17.92828619 64.06704895 -18.78447143 64.17731161 -21.91796875 63.1328125 C-21.2600371 61.46267832 -20.59073591 59.797026 -19.91796875 58.1328125 C-19.67691406 57.52050781 -19.43585938 56.90820312 -19.1875 56.27734375 C-17.14371261 51.24568443 -17.14371261 51.24568443 -14.91796875 50.1328125 C-13.50522762 50.02863651 -12.08830071 49.97772747 -10.671875 49.95703125 C-9.83462891 49.93318359 -8.99738281 49.90933594 -8.13476562 49.88476562 C-6.36938449 49.84189765 -4.60368364 49.81059204 -2.83789062 49.79101562 C2.06040019 49.75362129 2.06040019 49.75362129 6.1328125 47.37890625 C7.13550234 45.00628626 7.60907627 43.0717948 7.83203125 40.5078125 C7.94804688 39.34378906 7.94804688 39.34378906 8.06640625 38.15625 C8.23573161 36.06179086 8.23573161 36.06179086 7.08203125 34.1328125 C-5.78796875 33.6378125 -5.78796875 33.6378125 -18.91796875 33.1328125 C-18.25796875 31.8128125 -17.59796875 30.4928125 -16.91796875 29.1328125 C-14.16176534 28.71893212 -11.7417089 28.52724075 -8.98046875 28.5078125 C-3.1538962 28.52245616 -3.1538962 28.52245616 2.08203125 26.1328125 C4.4921875 25.9375 4.4921875 25.9375 7.14453125 26.0078125 C8.46130859 26.03488281 8.46130859 26.03488281 9.8046875 26.0625 C10.55621094 26.08570312 11.30773437 26.10890625 12.08203125 26.1328125 C12.74203125 26.1328125 13.40203125 26.1328125 14.08203125 26.1328125 C14.08203125 25.1428125 14.08203125 24.1528125 14.08203125 23.1328125 C14.74203125 23.1328125 15.40203125 23.1328125 16.08203125 23.1328125 C16.08203125 22.4728125 16.08203125 21.8128125 16.08203125 21.1328125 C16.74203125 21.1328125 17.40203125 21.1328125 18.08203125 21.1328125 C18.05882812 20.50375 18.035625 19.8746875 18.01171875 19.2265625 C17.99367187 18.370625 17.975625 17.5146875 17.95703125 16.6328125 C17.93382812 15.7975 17.910625 14.9621875 17.88671875 14.1015625 C18.13944466 10.26012874 19.07395364 6.84761817 20.08203125 3.1328125 C15.99843309 3.27176207 11.91523169 3.42016188 7.83203125 3.5703125 C6.67316406 3.60962891 5.51429687 3.64894531 4.3203125 3.68945312 C2.64775391 3.75229492 2.64775391 3.75229492 0.94140625 3.81640625 C-0.59821777 3.87139282 -0.59821777 3.87139282 -2.16894531 3.92749023 C-4.56037586 4.10610419 -6.6088168 4.54345135 -8.91796875 5.1328125 C-11.16796875 4.6953125 -11.16796875 4.6953125 -12.91796875 4.1328125 C-12.58796875 4.7928125 -12.25796875 5.4528125 -11.91796875 6.1328125 C-9.20349896 6.44522705 -6.57887514 6.64617842 -3.85546875 6.7578125 C-3.09685547 6.79648437 -2.33824219 6.83515625 -1.55664062 6.875 C0.3225032 6.96954812 2.20223461 7.05228006 4.08203125 7.1328125 C3.75203125 8.1228125 3.42203125 9.1128125 3.08203125 10.1328125 C0.77203125 10.4628125 -1.53796875 10.7928125 -3.91796875 11.1328125 C-4.24796875 10.1428125 -4.57796875 9.1528125 -4.91796875 8.1328125 C-6.54549106 8.38805124 -8.17000071 8.66255744 -9.79296875 8.9453125 C-10.69789062 9.09613281 -11.6028125 9.24695312 -12.53515625 9.40234375 C-15.26209353 9.96332551 -15.26209353 9.96332551 -16.91796875 13.1328125 C-17.24796875 12.4728125 -17.57796875 11.8128125 -17.91796875 11.1328125 C-19.23796875 13.7728125 -20.55796875 16.4128125 -21.91796875 19.1328125 C-22.24796875 19.1328125 -22.57796875 19.1328125 -22.91796875 19.1328125 C-22.54239236 13.12359031 -20.83391521 8.77121967 -16.91796875 4.1328125 C-11.30729265 0.58320109 -6.54527991 0.00600445 0 0 Z " fill="#DB6E35" transform="translate(83.91796875,10.8671875)"/>
<path d="M0 0 C2.10672779 -0.00220139 4.21294374 -0.02042953 6.31958008 -0.03930664 C7.65746892 -0.04223822 8.99536023 -0.04422459 10.33325195 -0.04516602 C11.54779053 -0.0492749 12.7623291 -0.05338379 14.01367188 -0.05761719 C16.9152832 0.18530273 16.9152832 0.18530273 18.9152832 2.18530273 C18.77856445 4.36499023 18.77856445 4.36499023 18.2277832 7.06030273 C18.03055664 8.03354492 17.83333008 9.00678711 17.63012695 10.00952148 C16.48592732 15.09276903 15.23476283 20.14489055 13.9152832 25.18530273 C13.5852832 25.18530273 13.2552832 25.18530273 12.9152832 25.18530273 C13.37954014 20.36493287 13.85176846 15.5502301 14.4777832 10.74780273 C14.97622885 7.28724159 14.97622885 7.28724159 14.9152832 4.18530273 C4.6852832 4.18530273 -5.5447168 4.18530273 -16.0847168 4.18530273 C-16.0847168 4.84530273 -16.0847168 5.50530273 -16.0847168 6.18530273 C-17.32152659 7.10776894 -18.60062668 7.9739437 -19.8972168 8.81030273 C-26.47466895 13.61288685 -27.10818388 19.82277085 -28.4909668 27.46264648 C-29.12836522 30.38545374 -30.04880681 33.10725176 -31.0222168 35.93530273 C-34.06531485 45.40651803 -34.93395503 55.33886536 -36.0847168 65.18530273 C-31.83371697 65.13348306 -27.5847575 65.03841554 -23.3347168 64.93530273 C-22.1281543 64.92112305 -20.9215918 64.90694336 -19.6784668 64.89233398 C-18.51831055 64.86010742 -17.3581543 64.82788086 -16.1628418 64.79467773 C-15.09453125 64.77373047 -14.0262207 64.7527832 -12.92553711 64.73120117 C-9.48426618 64.06991879 -8.2814477 62.84547897 -6.0847168 60.18530273 C-6.0847168 60.84530273 -6.0847168 61.50530273 -6.0847168 62.18530273 C-5.0947168 62.18530273 -4.1047168 62.18530273 -3.0847168 62.18530273 C-3.0847168 61.52530273 -3.0847168 60.86530273 -3.0847168 60.18530273 C-2.4659668 59.81405273 -1.8472168 59.44280273 -1.2097168 59.06030273 C1.88737783 56.32757218 2.30420367 53.17340077 2.9152832 49.18530273 C2.9152832 48.19530273 2.9152832 47.20530273 2.9152832 46.18530273 C3.5752832 46.18530273 4.2352832 46.18530273 4.9152832 46.18530273 C4.9152832 45.19530273 4.9152832 44.20530273 4.9152832 43.18530273 C5.9052832 43.18530273 6.8952832 43.18530273 7.9152832 43.18530273 C8.09704102 41.97293945 8.09704102 41.97293945 8.2824707 40.73608398 C8.45004883 39.66745117 8.61762695 38.59881836 8.7902832 37.49780273 C8.95270508 36.44206055 9.11512695 35.38631836 9.2824707 34.29858398 C9.87421389 31.3873536 10.71846381 28.89574666 11.9152832 26.18530273 C13.80795078 31.74413445 11.7071435 37.32688561 10.4777832 42.87280273 C10.25413086 44.01942383 10.03047852 45.16604492 9.80004883 46.34741211 C7.8637685 55.08819178 4.6855013 61.27713632 -2.86035156 66.38793945 C-9.30618425 69.40610788 -17.02677727 68.58326797 -23.9597168 68.49780273 C-25.30346909 68.49991045 -26.6472201 68.50315674 -27.9909668 68.50756836 C-37.81748769 68.45253184 -37.81748769 68.45253184 -40.0847168 66.18530273 C-39.67970128 60.48984482 -38.47422334 55.02418789 -37.15893555 49.47827148 C-36.97007278 48.67222977 -36.78121002 47.86618805 -36.58662415 47.03572083 C-36.18783652 45.34019954 -35.7868588 43.64519201 -35.38378906 41.95068359 C-34.77677558 39.39201877 -34.18135596 36.83084125 -33.58666992 34.26928711 C-27.81890706 9.71079218 -27.81890706 9.71079218 -21.0847168 4.18530273 C-20.5897168 3.60780273 -20.0947168 3.03030273 -19.5847168 2.43530273 C-14.75238896 -1.59163713 -5.98415916 -0.00070278 0 0 Z " fill="#1F9C4E" transform="translate(134.084716796875,24.814697265625)"/>
<path d="M0 0 C1.9480957 0.00966797 1.9480957 0.00966797 3.93554688 0.01953125 C5.30729432 0.0362419 6.67903911 0.05317179 8.05078125 0.0703125 C9.43423843 0.08034576 10.81770252 0.08947101 12.20117188 0.09765625 C15.58871577 0.12126283 18.97591197 0.15419213 22.36328125 0.1953125 C22.30322047 1.65478955 22.21441235 3.11310522 22.11328125 4.5703125 C22.066875 5.38242187 22.02046875 6.19453125 21.97265625 7.03125 C21.36328125 9.1953125 21.36328125 9.1953125 19.37890625 10.359375 C18.71375 10.63523437 18.04859375 10.91109375 17.36328125 11.1953125 C17.03328125 11.8553125 16.70328125 12.5153125 16.36328125 13.1953125 C15.61119385 13.15978271 14.85910645 13.12425293 14.08422852 13.08764648 C10.69830272 12.93067957 7.31207414 12.78164035 3.92578125 12.6328125 C2.14977539 12.54870117 2.14977539 12.54870117 0.33789062 12.46289062 C-0.78681641 12.41455078 -1.91152344 12.36621094 -3.0703125 12.31640625 C-4.11243896 12.2692749 -5.15456543 12.22214355 -6.22827148 12.17358398 C-8.58856164 11.91358909 -8.58856164 11.91358909 -9.63671875 13.1953125 C-10.29671875 13.1953125 -10.95671875 13.1953125 -11.63671875 13.1953125 C-11.63671875 14.1853125 -11.63671875 15.1753125 -11.63671875 16.1953125 C-12.29671875 16.1953125 -12.95671875 16.1953125 -13.63671875 16.1953125 C-15.26494168 19.16647511 -16.14637535 21.91488277 -16.85546875 25.22265625 C-17.06558594 26.17978516 -17.27570312 27.13691406 -17.4921875 28.12304688 C-17.70488281 29.11626953 -17.91757812 30.10949219 -18.13671875 31.1328125 C-18.5598706 33.10110973 -18.98683238 35.06859252 -19.41796875 37.03515625 C-19.60423828 37.90519287 -19.79050781 38.77522949 -19.98242188 39.67163086 C-20.66167807 42.29158284 -21.58056674 44.70593095 -22.63671875 47.1953125 C-24.34190264 42.07976082 -22.19810503 37.07477085 -20.94921875 31.9453125 C-20.69205078 30.82511719 -20.43488281 29.70492187 -20.16992188 28.55078125 C-18.69373119 22.40663625 -16.9582317 17.55025712 -13.63671875 12.1953125 C-13.63671875 11.2053125 -13.63671875 10.2153125 -13.63671875 9.1953125 C-14.62671875 9.1953125 -15.61671875 9.1953125 -16.63671875 9.1953125 C-15.17214478 5.33416294 -13.21507051 4.11540369 -9.63671875 2.1953125 C-6.00365817 -0.22672788 -4.31852852 -0.03771641 0 0 Z " fill="#0664AD" transform="translate(31.63671875,27.8046875)"/>
<path d="M0 0 C1.27791399 3.83374198 0.39925123 6.58253985 -0.51171875 10.38671875 C-0.76596367 11.48872368 -0.76596367 11.48872368 -1.02534485 12.61299133 C-1.5719284 14.97297003 -2.12969466 17.33015146 -2.6875 19.6875 C-3.04432292 21.2244463 -3.40044967 22.76155441 -3.75585938 24.29882812 C-4.6417724 28.11636878 -5.54597853 31.92924725 -6.4598999 35.74017334 C-6.82041542 37.24860222 -7.17787184 38.75776546 -7.5322876 40.26763916 C-8.04169373 42.43671761 -8.56069068 44.6032945 -9.08203125 46.76953125 C-9.37956299 48.01968018 -9.67709473 49.2698291 -9.98364258 50.55786133 C-10.98913982 53.96321937 -12.31215148 56.88376526 -14 60 C-14.66 60 -15.32 60 -16 60 C-16 60.66 -16 61.32 -16 62 C-20.625 64.125 -20.625 64.125 -24 63 C-22.35 62.34 -20.7 61.68 -19 61 C-19 60.34 -19 59.68 -19 59 C-18.21665283 58.27482178 -17.43330566 57.54964355 -16.6262207 56.80249023 C-13.58486374 53.55700017 -12.94437927 51.46387858 -11.98046875 47.16015625 C-11.75802238 46.1932914 -11.75802238 46.1932914 -11.53108215 45.20689392 C-11.22283657 43.8515216 -10.92328861 42.49414444 -10.63208008 41.13500977 C-10.18860287 39.06764129 -9.71889652 37.00765219 -9.24414062 34.94726562 C-7.95558958 29.21570702 -6.93061809 23.89956525 -7 18 C-6.16015625 15.18359375 -6.16015625 15.18359375 -5.0625 12.4375 C-3.68155748 8.94802159 -2.69395666 5.68502947 -2 2 C-5.98441965 2.01956909 -9.9670248 2.07172813 -13.95068359 2.15258789 C-15.96300021 2.18686967 -17.97569219 2.19620775 -19.98828125 2.20507812 C-27.46442537 2.37413666 -33.40895112 2.64745439 -39 8 C-44.41435551 14.97303361 -46.16855706 24.34229627 -46 33 C-46.66 33 -47.32 33 -48 33 C-48.04898438 33.89203125 -48.09796875 34.7840625 -48.1484375 35.703125 C-48.22320312 36.87359375 -48.29796875 38.0440625 -48.375 39.25 C-48.44460937 40.41015625 -48.51421875 41.5703125 -48.5859375 42.765625 C-48.97611454 45.81342297 -49.522916 47.3834512 -51 50 C-51.73030991 51.90840107 -52.43774143 53.825676 -53.125 55.75 C-53.47820313 56.73484375 -53.83140625 57.7196875 -54.1953125 58.734375 C-54.59363281 59.85585937 -54.59363281 59.85585937 -55 61 C-55.33 61 -55.66 61 -56 61 C-56.21007267 55.53721283 -55.4813294 50.83161361 -54.171875 45.5390625 C-53.98159729 44.74905853 -53.79131958 43.95905457 -53.59527588 43.14511108 C-53.19232166 41.48184231 -52.78532968 39.81954708 -52.37451172 38.15820312 C-51.7542276 35.6421484 -51.15168497 33.12230687 -50.55078125 30.6015625 C-44.84528151 7.0270245 -44.84528151 7.0270245 -35 1 C-24.4569237 -3.16516594 -10.99161507 -1.44830693 0 0 Z " fill="#1A5587" transform="translate(56,26)"/>
<path d="M0 0 C0.33 0 0.66 0 1 0 C1.17310317 5.10654361 0.94123057 8.26825048 -1 13 C-1.07646165 15.3320802 -1.09143299 17.66845878 -1 20 C-0.01 20.33 0.98 20.66 2 21 C2.33 18.36 2.66 15.72 3 13 C3.66 13.33 4.32 13.66 5 14 C3.8356269 22.49307438 2.23691302 30.72342182 0 39 C-0.33 39 -0.66 39 -1 39 C-1.33 34.71 -1.66 30.42 -2 26 C-2.33 26 -2.66 26 -3 26 C-3.12375 27.216875 -3.2475 28.43375 -3.375 29.6875 C-3.6898244 32.28366059 -4.07204034 34.17798201 -5.0625 36.625 C-6.18440974 38.99198579 -6.18440974 38.99198579 -5.875 41.6875 C-6.0010804 45.02863057 -6.61004979 46.68051602 -7.9375 49.6875 C-9.972782 54.41021421 -10.57006319 58.63784239 -10.82421875 63.75 C-11 66 -11 66 -12 68 C-12.66 68 -13.32 68 -14 68 C-14 70.64 -14 73.28 -14 76 C-13.46246094 75.84080078 -12.92492188 75.68160156 -12.37109375 75.51757812 C-9.56845802 74.90580015 -6.93046496 74.80205924 -4.0625 74.71875 C-2.92039062 74.68136719 -1.77828125 74.64398438 -0.6015625 74.60546875 C1.79947917 74.53515625 4.20052083 74.46484375 6.6015625 74.39453125 C7.74367188 74.35714844 8.88578125 74.31976563 10.0625 74.28125 C11.10535156 74.25095703 12.14820313 74.22066406 13.22265625 74.18945312 C15.62645331 74.02548103 17.69832154 73.68167216 20 73 C20 72.34 20 71.68 20 71 C20.99 70.34 21.98 69.68 23 69 C24.19232613 66.94996045 24.19232613 66.94996045 25 65 C25.66 65 26.32 65 27 65 C27.09796875 63.96359375 27.1959375 62.9271875 27.296875 61.859375 C27.4470002 60.48948259 27.59809287 59.11969596 27.75 57.75 C27.8428125 56.72712891 27.8428125 56.72712891 27.9375 55.68359375 C28.34423314 52.19246765 28.79885549 50.24046599 31.078125 47.515625 C31.71234375 47.01546875 32.3465625 46.5153125 33 46 C31.98741817 56.63210926 31.16450088 64.95026581 23.1875 72.75 C17.77419791 76.57115442 12.49241912 77.25326595 5.97265625 77.1953125 C4.68681641 77.18886719 3.40097656 77.18242188 2.07617188 77.17578125 C0.73827846 77.15907601 -0.59961217 77.14214619 -1.9375 77.125 C-3.30272783 77.11495322 -4.6679628 77.10583036 -6.03320312 77.09765625 C-9.35565199 77.07417605 -12.67773321 77.04133359 -16 77 C-16.16591083 70.87371456 -15.72864332 65.54757839 -14.27734375 59.609375 C-14.09631104 58.8339888 -13.91527832 58.0586026 -13.72875977 57.25971985 C-13.14122096 54.75411583 -12.53962079 52.25213576 -11.9375 49.75 C-11.52791374 48.01638665 -11.11914834 46.28257917 -10.71118164 44.54858398 C-9.6837072 40.19383251 -8.64398497 35.84212964 -7.59863281 31.49163818 C-7.02647247 29.1101841 -6.45624406 26.72827686 -5.88671875 24.34619141 C-3.94414476 16.22599603 -1.98371266 8.11025464 0 0 Z " fill="#C56E3F" transform="translate(60,30)"/>
<path d="M0 0 C0.65784988 -0.00095673 1.31569977 -0.00191345 1.9934845 -0.00289917 C3.37773739 -0.00357743 4.76199352 -0.00174791 6.14624023 0.00244141 C8.27269539 0.0078205 10.39894179 0.00247138 12.52539062 -0.00390625 C13.87109422 -0.00324591 15.21679768 -0.00196566 16.5625 0 C17.78864014 0.00112793 19.01478027 0.00225586 20.27807617 0.00341797 C23.08203125 0.1328125 23.08203125 0.1328125 24.08203125 1.1328125 C23.58030119 8.65876336 21.87874492 15.82165688 20.08203125 23.1328125 C18.76203125 23.4628125 17.44203125 23.7928125 16.08203125 24.1328125 C16.04464844 24.70386719 16.00726563 25.27492188 15.96875 25.86328125 C15.38926868 33.01021752 14.47627662 40.34911729 12.08203125 47.1328125 C11.09203125 47.4628125 10.10203125 47.7928125 9.08203125 48.1328125 C9.83238866 45.01482247 10.71566536 41.95210847 11.64453125 38.8828125 C11.91394531 37.99078125 12.18335938 37.09875 12.4609375 36.1796875 C12.66589844 35.50421875 12.87085938 34.82875 13.08203125 34.1328125 C12.42203125 34.1328125 11.76203125 34.1328125 11.08203125 34.1328125 C11.08203125 33.4728125 11.08203125 32.8128125 11.08203125 32.1328125 C10.09203125 32.1328125 9.10203125 32.1328125 8.08203125 32.1328125 C8.08203125 31.4728125 8.08203125 30.8128125 8.08203125 30.1328125 C7.09203125 29.8028125 6.10203125 29.4728125 5.08203125 29.1328125 C5.08203125 28.4728125 5.08203125 27.8128125 5.08203125 27.1328125 C4.09203125 26.8028125 3.10203125 26.4728125 2.08203125 26.1328125 C6.08203125 26.1328125 10.08203125 26.1328125 14.08203125 26.1328125 C14.08203125 25.1428125 14.08203125 24.1528125 14.08203125 23.1328125 C14.74203125 23.1328125 15.40203125 23.1328125 16.08203125 23.1328125 C16.08203125 22.4728125 16.08203125 21.8128125 16.08203125 21.1328125 C16.74203125 21.1328125 17.40203125 21.1328125 18.08203125 21.1328125 C18.05882812 20.50375 18.035625 19.8746875 18.01171875 19.2265625 C17.99367187 18.370625 17.975625 17.5146875 17.95703125 16.6328125 C17.93382812 15.7975 17.910625 14.9621875 17.88671875 14.1015625 C18.13944466 10.26012874 19.07395364 6.84761817 20.08203125 3.1328125 C15.99843309 3.27176207 11.91523169 3.42016188 7.83203125 3.5703125 C6.67316406 3.60962891 5.51429687 3.64894531 4.3203125 3.68945312 C2.64775391 3.75229492 2.64775391 3.75229492 0.94140625 3.81640625 C-0.59821777 3.87139282 -0.59821777 3.87139282 -2.16894531 3.92749023 C-4.56037586 4.10610419 -6.6088168 4.54345135 -8.91796875 5.1328125 C-11.16796875 4.6953125 -11.16796875 4.6953125 -12.91796875 4.1328125 C-12.58796875 4.7928125 -12.25796875 5.4528125 -11.91796875 6.1328125 C-9.20349896 6.44522705 -6.57887514 6.64617842 -3.85546875 6.7578125 C-3.09685547 6.79648437 -2.33824219 6.83515625 -1.55664062 6.875 C0.3225032 6.96954812 2.20223461 7.05228006 4.08203125 7.1328125 C3.75203125 8.1228125 3.42203125 9.1128125 3.08203125 10.1328125 C0.77203125 10.4628125 -1.53796875 10.7928125 -3.91796875 11.1328125 C-4.24796875 10.1428125 -4.57796875 9.1528125 -4.91796875 8.1328125 C-6.54549106 8.38805124 -8.17000071 8.66255744 -9.79296875 8.9453125 C-10.69789062 9.09613281 -11.6028125 9.24695312 -12.53515625 9.40234375 C-15.26209353 9.96332551 -15.26209353 9.96332551 -16.91796875 13.1328125 C-17.24796875 12.4728125 -17.57796875 11.8128125 -17.91796875 11.1328125 C-19.23796875 13.7728125 -20.55796875 16.4128125 -21.91796875 19.1328125 C-22.24796875 19.1328125 -22.57796875 19.1328125 -22.91796875 19.1328125 C-22.54239236 13.12359031 -20.83391521 8.77121967 -16.91796875 4.1328125 C-11.30729265 0.58320109 -6.54527991 0.00600445 0 0 Z " fill="#F16D25" transform="translate(83.91796875,10.8671875)"/>
<path d="M0 0 C0.65784988 -0.00095673 1.31569977 -0.00191345 1.9934845 -0.00289917 C3.37773739 -0.00357743 4.76199352 -0.00174791 6.14624023 0.00244141 C8.27269539 0.0078205 10.39894179 0.00247138 12.52539062 -0.00390625 C13.87109422 -0.00324591 15.21679768 -0.00196566 16.5625 0 C17.78864014 0.00112793 19.01478027 0.00225586 20.27807617 0.00341797 C23.08203125 0.1328125 23.08203125 0.1328125 24.08203125 1.1328125 C24.03125 3.05859375 24.03125 3.05859375 23.76953125 5.4453125 C23.69089844 6.22519531 23.61226562 7.00507813 23.53125 7.80859375 C23.06616846 10.21488521 22.27544569 12.00415082 21.08203125 14.1328125 C21.22371262 12.69489734 21.37054168 11.2574888 21.51953125 9.8203125 C21.60074219 9.01980469 21.68195313 8.21929687 21.765625 7.39453125 C22.08203125 5.1328125 22.08203125 5.1328125 23.08203125 2.1328125 C18.74021899 2.25130176 14.3986216 2.3755661 10.05712891 2.50512695 C8.58093735 2.54837285 7.1046991 2.59005506 5.62841797 2.63012695 C3.50343777 2.68808096 1.37869032 2.75170196 -0.74609375 2.81640625 C-2.02387695 2.85306396 -3.30166016 2.88972168 -4.61816406 2.92749023 C-7.23706748 3.09044509 -9.42813591 3.36228053 -11.91796875 4.1328125 C-11.91796875 4.7928125 -11.91796875 5.4528125 -11.91796875 6.1328125 C-6.63796875 6.4628125 -1.35796875 6.7928125 4.08203125 7.1328125 C3.75203125 8.1228125 3.42203125 9.1128125 3.08203125 10.1328125 C0.77203125 10.4628125 -1.53796875 10.7928125 -3.91796875 11.1328125 C-4.24796875 10.1428125 -4.57796875 9.1528125 -4.91796875 8.1328125 C-6.54549106 8.38805124 -8.17000071 8.66255744 -9.79296875 8.9453125 C-10.69789062 9.09613281 -11.6028125 9.24695312 -12.53515625 9.40234375 C-15.26209353 9.96332551 -15.26209353 9.96332551 -16.91796875 13.1328125 C-17.24796875 12.4728125 -17.57796875 11.8128125 -17.91796875 11.1328125 C-19.23796875 13.7728125 -20.55796875 16.4128125 -21.91796875 19.1328125 C-22.24796875 19.1328125 -22.57796875 19.1328125 -22.91796875 19.1328125 C-22.54239236 13.12359031 -20.83391521 8.77121967 -16.91796875 4.1328125 C-11.30729265 0.58320109 -6.54527991 0.00600445 0 0 Z " fill="#D57341" transform="translate(83.91796875,10.8671875)"/>
<path d="M0 0 C2.10672779 -0.00220139 4.21294374 -0.02042953 6.31958008 -0.03930664 C7.65746892 -0.04223822 8.99536023 -0.04422459 10.33325195 -0.04516602 C11.54779053 -0.0492749 12.7623291 -0.05338379 14.01367188 -0.05761719 C16.9152832 0.18530273 16.9152832 0.18530273 18.9152832 2.18530273 C18.77856445 4.36499023 18.77856445 4.36499023 18.2277832 7.06030273 C18.03055664 8.03354492 17.83333008 9.00678711 17.63012695 10.00952148 C16.48592732 15.09276903 15.23476283 20.14489055 13.9152832 25.18530273 C13.5852832 25.18530273 13.2552832 25.18530273 12.9152832 25.18530273 C13.37954014 20.36493287 13.85176846 15.5502301 14.4777832 10.74780273 C14.97622885 7.28724159 14.97622885 7.28724159 14.9152832 4.18530273 C4.6852832 4.18530273 -5.5447168 4.18530273 -16.0847168 4.18530273 C-16.0847168 4.84530273 -16.0847168 5.50530273 -16.0847168 6.18530273 C-17.58081055 7.47436523 -17.58081055 7.47436523 -19.5222168 8.81030273 C-20.16030273 9.25631836 -20.79838867 9.70233398 -21.45581055 10.16186523 C-23.0847168 11.18530273 -23.0847168 11.18530273 -24.0847168 11.18530273 C-24.4597168 8.99780273 -24.4597168 8.99780273 -24.0847168 6.18530273 C-17.12426712 -0.93701786 -9.46000883 -0.00111098 0 0 Z " fill="#419960" transform="translate(134.084716796875,24.814697265625)"/>
<path d="M0 0 C3.3 0 6.6 0 10 0 C11.27791399 3.83374198 10.39925123 6.58253985 9.48828125 10.38671875 C9.31878464 11.1213887 9.14928802 11.85605865 8.97465515 12.61299133 C8.4280716 14.97297003 7.87030534 17.33015146 7.3125 19.6875 C6.95567708 21.2244463 6.59955033 22.76155441 6.24414062 24.29882812 C5.3582276 28.11636878 4.45402147 31.92924725 3.5401001 35.74017334 C3.17958458 37.24860222 2.82212816 38.75776546 2.4677124 40.26763916 C1.95830627 42.43671761 1.43930932 44.6032945 0.91796875 46.76953125 C0.62043701 48.01968018 0.32290527 49.2698291 0.01635742 50.55786133 C-0.98913982 53.96321937 -2.31215148 56.88376526 -4 60 C-4.66 60 -5.32 60 -6 60 C-6 60.66 -6 61.32 -6 62 C-10.625 64.125 -10.625 64.125 -14 63 C-12.35 62.34 -10.7 61.68 -9 61 C-9 60.34 -9 59.68 -9 59 C-8.21665283 58.27482178 -7.43330566 57.54964355 -6.6262207 56.80249023 C-3.58486374 53.55700017 -2.94437927 51.46387858 -1.98046875 47.16015625 C-1.83217117 46.51557968 -1.6838736 45.87100311 -1.53108215 45.20689392 C-1.22283657 43.8515216 -0.92328861 42.49414444 -0.63208008 41.13500977 C-0.18860287 39.06764129 0.28110348 37.00765219 0.75585938 34.94726562 C2.04440687 29.21572281 3.06943772 23.89957612 3 18 C3.83984375 15.21875 3.83984375 15.21875 4.9375 12.5 C6.42141487 8.65650319 7.55414027 5.12420255 8 1 C5.36 1 2.72 1 0 1 C0 0.67 0 0.34 0 0 Z " fill="#1E517C" transform="translate(46,26)"/>
<path d="M0 0 C2.17016137 1.59379057 2.89935753 2.49950773 3.43359375 5.15625 C3.44399361 11.39616868 3.44399361 11.39616868 1.4375 14.125 C-2.09046549 15.39144915 -4.41378422 14.97805885 -8 14 C-10 12.375 -10 12.375 -11 10 C-10.87988224 6.57664374 -10.60726153 4.04583931 -8.875 1.0625 C-5.86086748 -0.64550843 -3.37911601 -0.36204814 0 0 Z " fill="#364D62" transform="translate(154,79)"/>
<path d="M0 0 C0.66 0 1.32 0 2 0 C2.33 2.31 2.66 4.62 3 7 C0.47524538 8.26237731 -1.31200466 8.09856404 -4.125 8.0625 C-5.03507812 8.05347656 -5.94515625 8.04445313 -6.8828125 8.03515625 C-7.58148438 8.02355469 -8.28015625 8.01195312 -9 8 C-8.938125 9.175625 -8.87625 10.35125 -8.8125 11.5625 C-8.78931853 15.93607144 -10.19752048 19.0195244 -12 23 C-12.25390222 25.79340157 -12.25390222 25.79340157 -12 28 C-12.99 28.33 -13.98 28.66 -15 29 C-15 29.99 -15 30.98 -15 32 C-17.64 32 -20.28 32 -23 32 C-22.67 29.36 -22.34 26.72 -22 24 C-21.67 24 -21.34 24 -21 24 C-20.67 25.65 -20.34 27.3 -20 29 C-15.95000308 24.74622966 -14.93275315 20.88540493 -13.8125 15.3125 C-12.07259825 7.14519651 -12.07259825 7.14519651 -11 5 C-7.04 5 -3.08 5 1 5 C0.67 3.35 0.34 1.7 0 0 Z " fill="#319E5D" transform="translate(139,44)"/>
<path d="M0 0 C0.495 1.485 0.495 1.485 1 3 C-0.4375 5.1875 -0.4375 5.1875 -2 7 C-2 6.34 -2 5.68 -2 5 C-2.99 5 -3.98 5 -5 5 C-5 5.66 -5 6.32 -5 7 C-6.05912598 7.02187378 -6.05912598 7.02187378 -7.13964844 7.04418945 C-10.34364674 7.11873167 -13.54661016 7.21537205 -16.75 7.3125 C-18.41675781 7.34633789 -18.41675781 7.34633789 -20.1171875 7.38085938 C-21.18710937 7.41630859 -22.25703125 7.45175781 -23.359375 7.48828125 C-24.83615723 7.52755737 -24.83615723 7.52755737 -26.34277344 7.56762695 C-29.42287356 8.06880826 -30.79745568 8.80744738 -33 11 C-33.86146864 12.86164368 -33.86146864 12.86164368 -34.1953125 14.94140625 C-34.35386719 15.68970703 -34.51242188 16.43800781 -34.67578125 17.20898438 C-34.89814453 18.37397461 -34.89814453 18.37397461 -35.125 19.5625 C-36.76393189 27.76393189 -36.76393189 27.76393189 -39 30 C-37.51892299 11.33063453 -37.51892299 11.33063453 -33 7 C-32.34 7 -31.68 7 -31 7 C-31 6.01 -31 5.02 -31 4 C-30.34 4 -29.68 4 -29 4 C-29.33 3.01 -29.66 2.02 -30 1 C-29.34 1 -28.68 1 -28 1 C-28 1.66 -28 2.32 -28 3 C-27.31373535 2.99476318 -26.6274707 2.98952637 -25.92041016 2.98413086 C-22.82194936 2.96339044 -19.72350314 2.95034924 -16.625 2.9375 C-15.54476562 2.92912109 -14.46453125 2.92074219 -13.3515625 2.91210938 C-11.8046875 2.90727539 -11.8046875 2.90727539 -10.2265625 2.90234375 C-9.27346191 2.89710693 -8.32036133 2.89187012 -7.33837891 2.88647461 C-5 3 -5 3 -3 4 C-2.67 3.01 -2.34 2.02 -2 1 C-1.34 0.67 -0.68 0.34 0 0 Z " fill="#1B5A91" transform="translate(51,37)"/>
<path d="M0 0 C0.33 0 0.66 0 1 0 C1.17310317 5.10654361 0.94123057 8.26825048 -1 13 C-1.07646165 15.3320802 -1.09143299 17.66845878 -1 20 C-0.01 20.33 0.98 20.66 2 21 C2.33 18.36 2.66 15.72 3 13 C3.66 13.33 4.32 13.66 5 14 C3.8356269 22.49307438 2.23691302 30.72342182 0 39 C-0.33 39 -0.66 39 -1 39 C-1.33 34.71 -1.66 30.42 -2 26 C-2.33 26 -2.66 26 -3 26 C-3.12375 27.216875 -3.2475 28.43375 -3.375 29.6875 C-3.78891306 33.06479059 -4.54573451 35.89756695 -6 39 C-6.33 39 -6.66 39 -7 39 C-8.19968218 34.00415634 -7.61993817 30.07441426 -6.34765625 25.1953125 C-6.07918129 24.1093428 -6.07918129 24.1093428 -5.80528259 23.00143433 C-5.23525223 20.70640142 -4.64916995 18.4158294 -4.0625 16.125 C-3.67145609 14.56276743 -3.28147082 13.00026947 -2.89257812 11.4375 C-1.94060898 7.62181974 -0.97423012 3.81005452 0 0 Z " fill="#C46536" transform="translate(60,30)"/>
<path d="M0 0 C1.21171875 0.00322266 2.4234375 0.00644531 3.671875 0.00976562 C4.94289063 0.01814453 6.21390625 0.02652344 7.5234375 0.03515625 C8.8021875 0.03966797 10.0809375 0.04417969 11.3984375 0.04882812 C14.56515042 0.06064422 17.73177106 0.0771181 20.8984375 0.09765625 C21.2284375 0.75765625 21.5584375 1.41765625 21.8984375 2.09765625 C12.9884375 2.09765625 4.0784375 2.09765625 -5.1015625 2.09765625 C-4.7715625 3.08765625 -4.4415625 4.07765625 -4.1015625 5.09765625 C-2.00436378 6.12047143 -2.00436378 6.12047143 0.4609375 6.78515625 C1.28722656 7.03652344 2.11351563 7.28789063 2.96484375 7.546875 C3.92197266 7.81951172 3.92197266 7.81951172 4.8984375 8.09765625 C4.44618989 14.01257897 3.740177 19.44965513 1.8984375 25.09765625 C1.5684375 25.09765625 1.2384375 25.09765625 0.8984375 25.09765625 C0.8984375 20.14765625 0.8984375 15.19765625 0.8984375 10.09765625 C-0.7515625 10.09765625 -2.4015625 10.09765625 -4.1015625 10.09765625 C-6.4140625 9.09765625 -6.4140625 9.09765625 -8.1015625 8.09765625 C-8.1015625 5.78765625 -8.1015625 3.47765625 -8.1015625 1.09765625 C-5.33538687 -0.28543156 -3.0913825 -0.01444571 0 0 Z " fill="#3B985F" transform="translate(117.1015625,41.90234375)"/>
<path d="M0 0 C0.66 0.99 1.32 1.98 2 3 C-1.0211434 5.0140956 -1.80660017 5.26836596 -5.23046875 5.4140625 C-6.03291016 5.45273438 -6.83535156 5.49140625 -7.66210938 5.53125 C-8.49548828 5.5621875 -9.32886719 5.593125 -10.1875 5.625 C-11.03248047 5.66367188 -11.87746094 5.70234375 -12.74804688 5.7421875 C-14.83167524 5.83636279 -16.91580753 5.91926675 -19 6 C-19 8.64 -19 11.28 -19 14 C-22.01031744 14.93423645 -22.86650268 15.04449911 -26 14 C-25.34206835 12.32986582 -24.67276716 10.6642135 -24 9 C-23.75894531 8.38769531 -23.51789063 7.77539062 -23.26953125 7.14453125 C-21.22574386 2.11287193 -21.22574386 2.11287193 -19 1 C-15.84679391 0.58878128 -12.67324743 0.44048777 -9.5 0.25 C-8.61957031 0.18167969 -7.73914063 0.11335938 -6.83203125 0.04296875 C-5.56939453 -0.03244141 -5.56939453 -0.03244141 -4.28125 -0.109375 C-3.50845703 -0.16061523 -2.73566406 -0.21185547 -1.93945312 -0.26464844 C-1.29943359 -0.17731445 -0.65941406 -0.08998047 0 0 Z " fill="#E46F2B" transform="translate(88,60)"/>
<path d="M0 0 C1.37163873 0.0265051 2.74300063 0.0740941 4.11328125 0.140625 C5.16612305 0.16769531 5.16612305 0.16769531 6.24023438 0.1953125 C7.96933561 0.24236287 9.6977333 0.31410627 11.42578125 0.390625 C12.11328125 2.703125 12.11328125 2.703125 12.42578125 5.390625 C11.4375 7.19140625 11.4375 7.19140625 9.42578125 8.390625 C6.0703125 8.68359375 6.0703125 8.68359375 2.23828125 8.578125 C0.96597656 8.55105469 -0.30632812 8.52398437 -1.6171875 8.49609375 C-3.08091797 8.44388672 -3.08091797 8.44388672 -4.57421875 8.390625 C-5.23421875 7.070625 -5.89421875 5.750625 -6.57421875 4.390625 C-4.77807489 0.89468215 -4.00056451 0.43722016 0 0 Z " fill="#BC653E" transform="translate(74.57421875,48.609375)"/>
<path d="M0 0 C0.99 0 1.98 0 3 0 C2.34056981 5.13183231 1.35936987 10.09211051 0.15234375 15.12109375 C-0.11188637 16.23823509 -0.11188637 16.23823509 -0.38145447 17.37794495 C-0.93890101 19.73182972 -1.5006262 22.08466854 -2.0625 24.4375 C-2.44364383 26.04355231 -2.82450597 27.6496715 -3.20507812 29.25585938 C-4.13346447 33.17135349 -5.06568669 37.08591613 -6 41 C-6.33 41 -6.66 41 -7 41 C-7 36.05 -7 31.1 -7 26 C-7.33 26.33 -7.66 26.66 -8 27 C-8.99 27 -9.98 27 -11 27 C-10.19924675 23.73479256 -9.32533815 20.49253933 -8.4375 17.25 C-8.16808594 16.26515625 -7.89867188 15.2803125 -7.62109375 14.265625 C-7.41613281 13.51796875 -7.21117188 12.7703125 -7 12 C-6.67 12 -6.34 12 -6 12 C-6 15.63 -6 19.26 -6 23 C-5.34 23 -4.68 23 -4 23 C-3.87882812 22.17757812 -3.75765625 21.35515625 -3.6328125 20.5078125 C-2.60014455 13.62865521 -1.44394705 6.8049845 0 0 Z " fill="#C26B37" transform="translate(100,35)"/>
<path d="M0 0 C0.66 1.32 1.32 2.64 2 4 C-2.27884606 6.1103435 -6.13864142 6.24128739 -10.8125 6.125 C-11.85180664 6.11146484 -11.85180664 6.11146484 -12.91210938 6.09765625 C-14.60822395 6.07426157 -16.30415871 6.03839641 -18 6 C-18 6.99 -18 7.98 -18 9 C-15.03 9 -12.06 9 -9 9 C-9 9.66 -9 10.32 -9 11 C-10.74991334 11.02715383 -12.49994945 11.04646551 -14.25 11.0625 C-15.71179688 11.07990234 -15.71179688 11.07990234 -17.203125 11.09765625 C-19.65758678 11.01195577 -21.66168914 10.70706066 -24 10 C-23.125 4.125 -23.125 4.125 -22 3 C-20.62108277 2.86776232 -19.2361405 2.79684002 -17.8515625 2.75390625 C-17.01109375 2.72103516 -16.170625 2.68816406 -15.3046875 2.65429688 C-13.52616245 2.59337073 -11.74751018 2.53604626 -9.96875 2.48242188 C-9.12570313 2.44826172 -8.28265625 2.41410156 -7.4140625 2.37890625 C-6.6401416 2.3538501 -5.8662207 2.32879395 -5.06884766 2.30297852 C-2.69537475 2.10622971 -2.69537475 2.10622971 0 0 Z " fill="#1A568B" transform="translate(45,46)"/>
<path d="M0 0 C0 3 0 3 -1.58203125 4.62109375 C-4.63335951 6.36118886 -7.2074453 6.66110511 -10.6875 7.0625 C-12.80038301 7.30927721 -14.90948718 7.6063888 -17 8 C-17.33 8.66 -17.66 9.32 -18 10 C-18.66 10 -19.32 10 -20 10 C-19.87625 10.7425 -19.7525 11.485 -19.625 12.25 C-20 15 -20 15 -23 17.3125 C-23.99 17.869375 -24.98 18.42625 -26 19 C-26.66 18.67 -27.32 18.34 -28 18 C-28 17.01 -28 16.02 -28 15 C-27.06414063 14.64808594 -27.06414063 14.64808594 -26.109375 14.2890625 C-23.39744059 12.63176925 -23.11024003 11.3858401 -22.25 8.375 C-22.00765625 7.55773437 -21.7653125 6.74046875 -21.515625 5.8984375 C-21.34546875 5.27195312 -21.1753125 4.64546875 -21 4 C-19.81921875 3.87882812 -18.6384375 3.75765625 -17.421875 3.6328125 C-15.86453957 3.4639448 -14.30725023 3.29465165 -12.75 3.125 C-11.97269531 3.04636719 -11.19539063 2.96773437 -10.39453125 2.88671875 C-4.94283448 2.29334559 -4.94283448 2.29334559 0 0 Z " fill="#20588A" transform="translate(40,58)"/>
<path d="M0 0 C0.66 0.33 1.32 0.66 2 1 C2 7.27426597 -0.46154649 10.33200119 -4.50390625 14.984375 C-12.17439995 21.17838869 -20.59464808 20.36713209 -30 20.1875 C-31.36066226 20.17242476 -32.72134069 20.15874138 -34.08203125 20.14648438 C-37.38843843 20.11130983 -40.69400684 20.06208288 -44 20 C-44.33 19.34 -44.66 18.68 -45 18 C-43.59306885 17.97812622 -43.59306885 17.97812622 -42.15771484 17.95581055 C-38.65730621 17.89453283 -35.15765551 17.82034068 -31.65771484 17.73754883 C-30.14675096 17.70442074 -28.63566693 17.67635145 -27.12451172 17.65356445 C-24.94446918 17.61979319 -22.76551561 17.56747104 -20.5859375 17.51171875 C-18.62213135 17.47244263 -18.62213135 17.47244263 -16.61865234 17.43237305 C-11.83929373 16.86131353 -8.29967826 15.62459783 -5.25 11.8125 C-4.63125 10.9153125 -4.63125 10.9153125 -4 10 C-3.34 10 -2.68 10 -2 10 C-1.34 6.7 -0.68 3.4 0 0 Z " fill="#4C9466" transform="translate(140,73)"/>
<path d="M0 0 C1.0236264 0.00212242 1.0236264 0.00212242 2.06793213 0.00428772 C4.23804184 0.00986541 6.4080467 0.02241371 8.578125 0.03515625 C10.05338392 0.04017414 11.52864447 0.04473654 13.00390625 0.04882812 C16.61201298 0.0598275 20.22005875 0.07707672 23.828125 0.09765625 C23.70133269 2.15411038 23.56543368 4.21000415 23.42578125 6.265625 C23.31375366 7.9830188 23.31375366 7.9830188 23.19946289 9.73510742 C22.70560731 14.20708176 21.457876 17.91699064 19.828125 22.09765625 C19.168125 22.09765625 18.508125 22.09765625 17.828125 22.09765625 C17.94401045 20.09710743 18.07133555 18.09722034 18.203125 16.09765625 C18.27273437 14.98390625 18.34234375 13.87015625 18.4140625 12.72265625 C18.87492572 8.68792916 19.77144162 5.01511658 20.828125 1.09765625 C16.74452684 1.23660582 12.66132544 1.38500563 8.578125 1.53515625 C7.41925781 1.57447266 6.26039062 1.61378906 5.06640625 1.65429688 C3.39384766 1.71713867 3.39384766 1.71713867 1.6875 1.78125 C0.14787598 1.83623657 0.14787598 1.83623657 -1.42285156 1.89233398 C-4.10895038 1.99548087 -4.10895038 1.99548087 -6.35058594 2.74243164 C-8.171875 3.09765625 -8.171875 3.09765625 -11.171875 1.09765625 C-7.43877067 -0.09052343 -3.89695855 -0.01597114 0 0 Z " fill="#DD6423" transform="translate(83.171875,12.90234375)"/>
<path d="M0 0 C2.06723714 3.10085571 2.24497423 3.72931681 2.1953125 7.23046875 C2.18886719 8.03291016 2.18242188 8.83535156 2.17578125 9.66210938 C2.15902344 10.49548828 2.14226563 11.32886719 2.125 12.1875 C2.11597656 13.03248047 2.10695313 13.87746094 2.09765625 14.74804688 C2.07410703 16.83215243 2.03823647 18.91611217 2 21 C2.99 21 3.98 21 5 21 C5 21.66 5 22.32 5 23 C0.545 22.01 0.545 22.01 -4 21 C-3.125 12.125 -3.125 12.125 -2 11 C-1.60545777 9.15400312 -1.25823134 7.29774178 -0.9375 5.4375 C-0.76089844 4.42558594 -0.58429687 3.41367187 -0.40234375 2.37109375 C-0.20318359 1.19740234 -0.20318359 1.19740234 0 0 Z " fill="#E06728" transform="translate(57,53)"/>
<path d="M0 0 C3.5 0.1875 3.5 0.1875 5.5 1.1875 C5.5 1.8475 5.5 2.5075 5.5 3.1875 C4.51 3.1875 3.52 3.1875 2.5 3.1875 C2.891875 3.744375 3.28375 4.30125 3.6875 4.875 C3.955625 5.638125 4.22375 6.40125 4.5 7.1875 C3.125 9.9375 3.125 9.9375 1.5 12.1875 C-3.375 11.3125 -3.375 11.3125 -4.5 10.1875 C-4.73255814 5.65261628 -4.73255814 5.65261628 -3.5 3.1875 C-4.16 2.8575 -4.82 2.5275 -5.5 2.1875 C-3.5 0.1875 -3.5 0.1875 0 0 Z " fill="#4E7E9F" transform="translate(150.5,78.8125)"/>
<path d="M0 0 C-0.33 1.65 -0.66 3.3 -1 5 C-2.65 5.33 -4.3 5.66 -6 6 C-5.67 6.99 -5.34 7.98 -5 9 C-6 10 -6 10 -9.0625 10.0625 C-10.031875 10.041875 -11.00125 10.02125 -12 10 C-12.82638376 7.10765685 -13 5.11257569 -13 2 C-10.03 2.495 -10.03 2.495 -7 3 C-7.33 2.01 -7.66 1.02 -8 0 C-4.94736336 -0.98120464 -3.05263664 -0.98120464 0 0 Z " fill="#0BAF46" transform="translate(128,31)"/>
<path d="M0 0 C0.66 0 1.32 0 2 0 C1.855625 1.11375 1.71125 2.2275 1.5625 3.375 C1.24702376 5.82432246 0.97906318 8.2605886 0.78125 10.72265625 C0.7090625 11.61855469 0.636875 12.51445313 0.5625 13.4375 C0.50191406 14.28183594 0.44132813 15.12617187 0.37890625 15.99609375 C0.25386719 16.65738281 0.12882813 17.31867187 0 18 C-0.66 18.33 -1.32 18.66 -2 19 C-2.61987221 21.64229695 -2.61987221 21.64229695 -3 24.75 C-3.55949192 28.80631645 -4.33388476 32.25124071 -6 36 C-6.33 36 -6.66 36 -7 36 C-7.042721 34.33388095 -7.04063832 32.66617115 -7 31 C-6.67 30.67 -6.34 30.34 -6 30 C-5.73637088 28.09015352 -5.53898518 26.17096922 -5.375 24.25 C-5.23191406 22.67992187 -5.23191406 22.67992187 -5.0859375 21.078125 C-5.0050335 18.18029068 -5.30468432 15.80201843 -6 13 C-4.35 12.34 -2.7 11.68 -1 11 C-1.09539062 10.37351562 -1.19078125 9.74703125 -1.2890625 9.1015625 C-1.39992187 8.28429688 -1.51078125 7.46703125 -1.625 6.625 C-1.74101562 5.81289063 -1.85703125 5.00078125 -1.9765625 4.1640625 C-1.98429688 3.44992188 -1.99203125 2.73578125 -2 2 C-1.34 1.34 -0.68 0.68 0 0 Z " fill="#19974A" transform="translate(148,32)"/>
<path d="M0 0 C1.27936731 3.89820643 0.35340443 5.99457929 -1.18359375 9.7578125 C-2.00619264 12.01700755 -2.4646757 14.13366376 -2.875 16.5 C-4.21186705 23.85276878 -6.69397852 30.9059034 -9 38 C-9.33 38 -9.66 38 -10 38 C-9.50068636 30.48025377 -8.06483396 23.45951171 -6.125 16.1875 C-5.86847656 15.17751953 -5.61195312 14.16753906 -5.34765625 13.12695312 C-4.08851922 8.3340069 -2.95150313 4.07378127 0 0 Z " fill="#32804D" transform="translate(109,33)"/>
<path d="M0 0 C2.4375 2.4375 2.4375 2.4375 4 5 C3.01 6.32 2.02 7.64 1 9 C-1.64 8.67 -4.28 8.34 -7 8 C-7.93423645 4.98968256 -8.04449911 4.13349732 -7 1 C-3.75 0.1875 -3.75 0.1875 0 0 Z " fill="#0367B5" transform="translate(29,29)"/>
<path d="M0 0 C5.28 0 10.56 0 16 0 C15.67 0.99 15.34 1.98 15 3 C14.94729537 4.36893239 14.94729537 4.36893239 16 7 C14.5625 9.1875 14.5625 9.1875 13 11 C12.34 10.67 11.68 10.34 11 10 C11.33 9.34 11.66 8.68 12 8 C11.505 7.54625 11.01 7.0925 10.5 6.625 C9 5 9 5 9 3 C6.03 3 3.06 3 0 3 C0 2.01 0 1.02 0 0 Z " fill="#0B5E9D" transform="translate(27,52)"/>
<path d="M0 0 C0 0.66 0 1.32 0 2 C-4.14369781 3.98759945 -7.47907025 4.23422068 -12.05078125 4.1953125 C-12.70958786 4.1924826 -13.36839447 4.18965271 -14.04716492 4.18673706 C-16.13580062 4.17560924 -18.22399556 4.15051948 -20.3125 4.125 C-21.73501982 4.11496059 -23.1575464 4.10583642 -24.58007812 4.09765625 C-28.05352681 4.07569447 -31.52672033 4.04121646 -35 4 C-35 3.67 -35 3.34 -35 3 C-34.30962646 2.9498877 -33.61925293 2.89977539 -32.90795898 2.84814453 C-29.75052841 2.61465298 -26.59406368 2.36992156 -23.4375 2.125 C-22.35146484 2.04636719 -21.26542969 1.96773438 -20.14648438 1.88671875 C-14.28892341 1.4238112 -5.34667325 -2.1386693 0 0 Z " fill="#316596" transform="translate(35,89)"/>
<path d="M0 0 C0.99 0 1.98 0 3 0 C4.01603857 5.79141983 3.96263236 9.4584498 2 15 C1.4225 14.814375 0.845 14.62875 0.25 14.4375 C-2.20692525 13.95976454 -3.64397534 14.24270636 -6 15 C-5.44225728 11.76509224 -4.62788492 10.02144994 -2 8 C-1.01 8 -0.02 8 1 8 C0.67 7.34 0.34 6.68 0 6 C-0.039992 4.00039988 -0.04346799 1.99952758 0 0 Z " fill="#1166AE" transform="translate(46,42)"/>
<path d="M0 0 C0.85078125 0.00322266 1.7015625 0.00644531 2.578125 0.00976562 C3.46757813 0.01814453 4.35703125 0.02652344 5.2734375 0.03515625 C6.170625 0.03966797 7.0678125 0.04417969 7.9921875 0.04882812 C10.21100398 0.06063034 12.42968768 0.0770947 14.6484375 0.09765625 C14.3184375 0.75765625 13.9884375 1.41765625 13.6484375 2.09765625 C7.3784375 2.09765625 1.1084375 2.09765625 -5.3515625 2.09765625 C-5.6815625 4.73765625 -6.0115625 7.37765625 -6.3515625 10.09765625 C-7.0115625 10.09765625 -7.6715625 10.09765625 -8.3515625 10.09765625 C-8.3515625 10.75765625 -8.3515625 11.41765625 -8.3515625 12.09765625 C-9.3415625 12.42765625 -10.3315625 12.75765625 -11.3515625 13.09765625 C-10.69363085 11.42752207 -10.02432966 9.76186975 -9.3515625 8.09765625 C-9.11050781 7.48535156 -8.86945313 6.87304688 -8.62109375 6.2421875 C-6.49508477 1.00810447 -5.54514887 -0.03696766 0 0 Z " fill="#C8765B" transform="translate(73.3515625,60.90234375)"/>
<path d="M0 0 C0.99 1.485 0.99 1.485 2 3 C3.62419982 5.29118236 3.62419982 5.29118236 6 7 C9.6675213 7.33417929 9.6675213 7.33417929 13 7 C12.54775239 12.91492272 11.8417395 18.35199888 10 24 C9.67 24 9.34 24 9 24 C9 19.05 9 14.1 9 9 C7.35 9 5.7 9 4 9 C1.6875 8 1.6875 8 0 7 C0 4.69 0 2.38 0 0 Z " fill="#358C5A" transform="translate(109,43)"/>
<path d="M0 0 C1.05960938 0.00676758 1.05960938 0.00676758 2.140625 0.01367188 C3.88545275 0.02546125 5.630237 0.04339676 7.375 0.0625 C7.375 0.7225 7.375 1.3825 7.375 2.0625 C10.015 2.0625 12.655 2.0625 15.375 2.0625 C15.375 2.3925 15.375 2.7225 15.375 3.0625 C5.805 3.0625 -3.765 3.0625 -13.625 3.0625 C-8.56028373 0.53014186 -5.58662025 -0.06699821 0 0 Z " fill="#18578E" transform="translate(38.625,24.9375)"/>
<path d="M0 0 C0.66 0 1.32 0 2 0 C1.67 2.97 1.34 5.94 1 9 C2.65 9 4.3 9 6 9 C5.67 9.99 5.34 10.98 5 12 C2.3125 12.8125 2.3125 12.8125 -1 13 C-3.875 10.5625 -3.875 10.5625 -6 8 C-5.34 6.35 -4.68 4.7 -4 3 C-3.34 4.32 -2.68 5.64 -2 7 C-1.34 4.69 -0.68 2.38 0 0 Z " fill="#1F6DAF" transform="translate(11,67)"/>
<path d="M0 0 C0.99 0.33 1.98 0.66 3 1 C2.625 3.9375 2.625 3.9375 2 7 C-1.00313748 8.50156874 -3.79067522 8.09281204 -7.125 8.0625 C-8.40632813 8.05347656 -9.68765625 8.04445313 -11.0078125 8.03515625 C-12.48894531 8.01775391 -12.48894531 8.01775391 -14 8 C-14.66 6.68 -15.32 5.36 -16 4 C-15.01 3.01 -14.02 2.02 -13 1 C-12.67 2.65 -12.34 4.3 -12 6 C-12 5.01 -12 4.02 -12 3 C-11.34 3.33 -10.68 3.66 -10 4 C-10.33 4.66 -10.66 5.32 -11 6 C-7.04 6 -3.08 6 1 6 C0.67 4.02 0.34 2.04 0 0 Z " fill="#C67E5E" transform="translate(84,49)"/>
<path d="M0 0 C1 3 1 3 -0.0625 5.5 C-2.44744508 8.57734849 -4.41404015 9.51300208 -8 11 C-11.15966797 11.34057617 -11.15966797 11.34057617 -14.4921875 11.29296875 C-15.69101563 11.28330078 -16.88984375 11.27363281 -18.125 11.26367188 C-19.3625 11.23853516 -20.6 11.21339844 -21.875 11.1875 C-23.13570312 11.17396484 -24.39640625 11.16042969 -25.6953125 11.14648438 C-28.79731454 11.11123435 -31.89843534 11.06195504 -35 11 C-35 10.67 -35 10.34 -35 10 C-33.84999512 9.96241577 -33.84999512 9.96241577 -32.67675781 9.92407227 C-29.20100717 9.80798577 -25.72551908 9.68531634 -22.25 9.5625 C-21.0434375 9.52318359 -19.836875 9.48386719 -18.59375 9.44335938 C-16.85351562 9.38051758 -16.85351562 9.38051758 -15.078125 9.31640625 C-14.00981445 9.27974854 -12.94150391 9.24309082 -11.84082031 9.20532227 C-9.41688848 9.03013091 -7.32113288 8.68801513 -5 8 C-5 7.34 -5 6.68 -5 6 C-4.01 5.34 -3.02 4.68 -2 4 C-0.80767387 1.94996045 -0.80767387 1.94996045 0 0 Z " fill="#C76835" transform="translate(85,95)"/>
<path d="M0 0 C0.66 0.66 1.32 1.32 2 2 C1.34 2 0.68 2 0 2 C-1.62822293 4.97116261 -2.5096566 7.71957027 -3.21875 11.02734375 C-3.42886719 11.98447266 -3.63898437 12.94160156 -3.85546875 13.92773438 C-4.17451172 15.41756836 -4.17451172 15.41756836 -4.5 16.9375 C-4.92315185 18.90579723 -5.35011363 20.87328002 -5.78125 22.83984375 C-5.96751953 23.70988037 -6.15378906 24.57991699 -6.34570312 25.47631836 C-7.02495932 28.09627034 -7.94384799 30.51061845 -9 33 C-10.7148651 27.85540469 -8.55903529 22.78548177 -7.3125 17.625 C-7.05533203 16.48804687 -6.79816406 15.35109375 -6.53320312 14.1796875 C-6.27087891 13.08140625 -6.00855469 11.983125 -5.73828125 10.8515625 C-5.50149658 9.84947754 -5.26471191 8.84739258 -5.02075195 7.81494141 C-3.86062264 4.61563718 -2.24484339 2.53316393 0 0 Z " fill="#075390" transform="translate(18,42)"/>
<path d="M0 0 C0 0.99 0 1.98 0 3 C-3.30994713 4.65497356 -6.99123 4.10084335 -10.625 4.0625 C-11.42679688 4.05798828 -12.22859375 4.05347656 -13.0546875 4.04882812 C-15.03649006 4.03703168 -17.01825433 4.01909605 -19 4 C-19 6.31 -19 8.62 -19 11 C-20.65 10.67 -22.3 10.34 -24 10 C-23.125 4.125 -23.125 4.125 -22 3 C-20.62108277 2.86776232 -19.2361405 2.79684002 -17.8515625 2.75390625 C-17.01109375 2.72103516 -16.170625 2.68816406 -15.3046875 2.65429688 C-13.52616245 2.59337073 -11.74751018 2.53604626 -9.96875 2.48242188 C-9.12570313 2.44826172 -8.28265625 2.41410156 -7.4140625 2.37890625 C-6.6401416 2.3538501 -5.8662207 2.32879395 -5.06884766 2.30297852 C-2.69537475 2.10622971 -2.69537475 2.10622971 0 0 Z " fill="#275074" transform="translate(45,46)"/>
<path d="M0 0 C0.66 0.33 1.32 0.66 2 1 C1.34 7.27 0.68 13.54 0 20 C-1.32 20.33 -2.64 20.66 -4 21 C-3.29843593 13.84404654 -1.69214979 6.98144819 0 0 Z " fill="#359155" transform="translate(98,70)"/>
<path d="M0 0 C0.66 0 1.32 0 2 0 C0.36882237 12.25529511 0.36882237 12.25529511 -4 16 C-6.75 16.8125 -6.75 16.8125 -9 17 C-8.67 14.36 -8.34 11.72 -8 9 C-7.67 9 -7.34 9 -7 9 C-6.67 10.65 -6.34 12.3 -6 14 C-1.86217076 9.72424312 -0.94055703 5.68046944 0 0 Z " fill="#5DA77F" transform="translate(125,59)"/>
<path d="M0 0 C1.64727891 4.94183673 -0.15839046 9.63133869 -1.25 14.625 C-1.46785156 15.70007813 -1.68570313 16.77515625 -1.91015625 17.8828125 C-2.13058594 18.90375 -2.35101563 19.9246875 -2.578125 20.9765625 C-2.87831543 22.38542725 -2.87831543 22.38542725 -3.18457031 23.82275391 C-3.58820801 24.90049072 -3.58820801 24.90049072 -4 26 C-4.99 26.33 -5.98 26.66 -7 27 C-6.85691406 26.45601562 -6.71382813 25.91203125 -6.56640625 25.3515625 C-5.92906195 22.70548478 -5.42469074 20.05274466 -4.9375 17.375 C-4.76089844 16.41335937 -4.58429688 15.45171875 -4.40234375 14.4609375 C-3.94621671 12.08663601 -3.94621671 12.08663601 -4 10 C-3.34 10 -2.68 10 -2 10 C-2 7.36 -2 4.72 -2 2 C-1.34 2 -0.68 2 0 2 C0 1.34 0 0.68 0 0 Z " fill="#EE6F29" transform="translate(100,32)"/>
<path d="M0 0 C0.33 0 0.66 0 1 0 C0.67 4.95 0.34 9.9 0 15 C-0.66 15 -1.32 15 -2 15 C-2.33 16.98 -2.66 18.96 -3 21 C-3.144375 20.38125 -3.28875 19.7625 -3.4375 19.125 C-3.93152225 16.96741678 -3.93152225 16.96741678 -5 15 C-4.66015625 12.8359375 -4.66015625 12.8359375 -4.0625 10.375 C-3.86785156 9.55773438 -3.67320312 8.74046875 -3.47265625 7.8984375 C-3.31667969 7.27195312 -3.16070312 6.64546875 -3 6 C-2.34 6 -1.68 6 -1 6 C-0.67 4.02 -0.34 2.04 0 0 Z " fill="#0F4D7C" transform="translate(10,44)"/>
<path d="M0 0 C2.7109883 2.7109883 2.79116886 4.17142912 3 8 C2.21412822 11.0880731 1.16568002 14.03640673 0 17 C-0.66 17 -1.32 17 -2 17 C-1.85848172 14.9163691 -1.71162064 12.83310062 -1.5625 10.75 C-1.48128906 9.58984375 -1.40007812 8.4296875 -1.31640625 7.234375 C-1.06752213 4.69022624 -0.71885058 2.44046752 0 0 Z " fill="#CD5F2D" transform="translate(103,18)"/>
<path d="M0 0 C1.45823212 -0.0270043 2.91660675 -0.04639787 4.375 -0.0625 C5.18710938 -0.07410156 5.99921875 -0.08570313 6.8359375 -0.09765625 C9 0 9 0 11 1 C11 1.66 11 2.32 11 3 C8.59454362 4.20272819 7.05003047 4.10071472 4.375 4.0625 C3.14910156 4.04896484 3.14910156 4.04896484 1.8984375 4.03515625 C0.95871094 4.01775391 0.95871094 4.01775391 0 4 C0 2.68 0 1.36 0 0 Z " fill="#E56933" transform="translate(73,51)"/>
<path d="M0 0 C0.33 0 0.66 0 1 0 C1.17942163 3.94727588 1.09350689 6.5980513 -1 10 C-1.66 10 -2.32 10 -3 10 C-3 10.66 -3 11.32 -3 12 C-7.625 14.125 -7.625 14.125 -11 13 C-9.35 12.34 -7.7 11.68 -6 11 C-6 10.34 -6 9.68 -6 9 C-5.195625 8.21625 -4.39125 7.4325 -3.5625 6.625 C-1.18189674 4.18633325 -0.36364082 3.2727674 0 0 Z " fill="#1A517A" transform="translate(43,76)"/>
<path d="M0 0 C0.9867097 3.11074833 0.96838493 5.16442757 0.22265625 8.328125 C0.03896484 9.12734375 -0.14472656 9.9265625 -0.33398438 10.75 C-0.53314453 11.575 -0.73230469 12.4 -0.9375 13.25 C-1.23043945 14.51070312 -1.23043945 14.51070312 -1.52929688 15.796875 C-2.01142286 17.86648898 -2.50463863 19.93351395 -3 22 C-3.66 21.67 -4.32 21.34 -5 21 C-4.19845754 13.78611782 -2.29265556 6.87796669 0 0 Z " fill="#419062" transform="translate(146,51)"/>
<path d="M0 0 C0.99 0 1.98 0 3 0 C2.21085905 6.78661213 0.58725189 13.36149367 -1 20 C-1.33 20 -1.66 20 -2 20 C-1.85780436 17.79142945 -1.71108153 15.58315013 -1.5625 13.375 C-1.48128906 12.14523438 -1.40007812 10.91546875 -1.31640625 9.6484375 C-1.03336056 6.38467612 -0.58961047 3.22056141 0 0 Z " fill="#BA6335" transform="translate(100,35)"/>
<path d="M0 0 C0.33 0.99 0.66 1.98 1 3 C-0.98 3.99 -0.98 3.99 -3 5 C-3 5.66 -3 6.32 -3 7 C-5.64 6.34 -8.28 5.68 -11 5 C-10.34 4.67 -9.68 4.34 -9 4 C-9 3.34 -9 2.68 -9 2 C-6.94921875 1.77213542 -4.8984375 1.54427083 -2.84765625 1.31640625 C-0.98859771 1.18113386 -0.98859771 1.18113386 0 0 Z " fill="#E47225" transform="translate(83,96)"/>
<path d="M0 0 C0.66 0.33 1.32 0.66 2 1 C1.5875 1.66 1.175 2.32 0.75 3 C-1.34213684 6.5865203 -3.17727335 10.27127492 -5 14 C-5.33 14 -5.66 14 -6 14 C-5.5414571 8.26821381 -4.14522 4.14522 0 0 Z " fill="#C97742" transform="translate(67,16)"/>
<path d="M0 0 C0.99 0.99 1.98 1.98 3 3 C2.01 4.98 1.02 6.96 0 9 C-0.66 9 -1.32 9 -2 9 C-2.66 8.01 -3.32 7.02 -4 6 C-3.67 5.01 -3.34 4.02 -3 3 C-2.34 3.33 -1.68 3.66 -1 4 C-0.67 2.68 -0.34 1.36 0 0 Z " fill="#39688B" transform="translate(152,82)"/>
<path d="M0 0 C0.66 0 1.32 0 2 0 C1.85691406 0.55171875 1.71382813 1.1034375 1.56640625 1.671875 C0.9544691 4.18714769 0.43873189 6.71042508 -0.0625 9.25 C-0.32740234 10.58804688 -0.32740234 10.58804688 -0.59765625 11.953125 C-0.73042969 12.62859375 -0.86320313 13.3040625 -1 14 C-1.99 14 -2.98 14 -4 14 C-3.46148032 8.72250715 -2.22656164 4.74354436 0 0 Z " fill="#0C5D9C" transform="translate(4,76)"/>
<path d="M0 0 C0.33 0 0.66 0 1 0 C0.7242265 6.2049038 -0.10640794 10.10160999 -4 15 C-5 13 -5 13 -4.0625 9.875 C-3.711875 8.92625 -3.36125 7.9775 -3 7 C-2.34 7 -1.68 7 -1 7 C-0.67 4.69 -0.34 2.38 0 0 Z " fill="#B06C4B" transform="translate(90,85)"/>
<path d="M0 0 C0.66 0.33 1.32 0.66 2 1 C1.63258872 7.12352138 0.21348564 9.78651436 -4 14 C-4.66 14 -5.32 14 -6 14 C-5.34 12.68 -4.68 11.36 -4 10 C-3.34 10 -2.68 10 -2 10 C-1.34 6.7 -0.68 3.4 0 0 Z " fill="#458960" transform="translate(140,73)"/>
<path d="M0 0 C3.3 0 6.6 0 10 0 C11.25541557 3.76624671 10.37061958 5.37188934 9 9 C8.67 9 8.34 9 8 9 C8 6.36 8 3.72 8 1 C5.36 1 2.72 1 0 1 C0 0.67 0 0.34 0 0 Z " fill="#1D4470" transform="translate(46,26)"/>
<path d="M0 0 C0.66 0.99 1.32 1.98 2 3 C1 4 1 4 -1.04125977 4.11352539 C-1.91580811 4.10828857 -2.79035645 4.10305176 -3.69140625 4.09765625 C-4.63564453 4.09443359 -5.57988281 4.09121094 -6.55273438 4.08789062 C-7.54595703 4.07951172 -8.53917969 4.07113281 -9.5625 4.0625 C-10.55958984 4.05798828 -11.55667969 4.05347656 -12.58398438 4.04882812 C-15.05604849 4.03700007 -17.52799518 4.02051849 -20 4 C-20 3.67 -20 3.34 -20 3 C-13.73 2.67 -7.46 2.34 -1 2 C-0.67 1.34 -0.34 0.68 0 0 Z " fill="#D5612C" transform="translate(88,60)"/>
<path d="M0 0 C0 0.99 0 1.98 0 3 C-2 4.6875 -2 4.6875 -4 6 C-4.66 5.67 -5.32 5.34 -6 5 C-7.53668865 4.77532169 -9.07968054 4.59203195 -10.625 4.4375 C-11.44226563 4.35371094 -12.25953125 4.26992188 -13.1015625 4.18359375 C-13.72804688 4.12300781 -14.35453125 4.06242187 -15 4 C-15 3.67 -15 3.34 -15 3 C-14.25234375 2.95101562 -13.5046875 2.90203125 -12.734375 2.8515625 C-11.74953125 2.77679688 -10.7646875 2.70203125 -9.75 2.625 C-8.28820312 2.52058594 -8.28820312 2.52058594 -6.796875 2.4140625 C-4.10366811 2.01534751 -2.33036721 1.36492937 0 0 Z " fill="#234E74" transform="translate(40,58)"/>
<path d="M0 0 C0.33 0 0.66 0 1 0 C0.88506243 1.89646998 0.75760358 3.79218332 0.625 5.6875 C0.55539063 6.74324219 0.48578125 7.79898438 0.4140625 8.88671875 C0.01239911 11.90677269 -0.74069019 14.24078054 -2 17 C-2.33 17 -2.66 17 -3 17 C-2.48517081 11.147205 -1.54642808 5.6702363 0 0 Z " fill="#BC704C" transform="translate(52,64)"/>
<path d="M0 0 C4.34263862 -0.16702456 7.20960634 -0.12999997 11 2 C10.28972656 2.04898438 9.57945313 2.09796875 8.84765625 2.1484375 C7.46900391 2.26058594 7.46900391 2.26058594 6.0625 2.375 C5.14597656 2.44460937 4.22945312 2.51421875 3.28515625 2.5859375 C2.53105469 2.72257812 1.77695312 2.85921875 1 3 C0.67 3.66 0.34 4.32 0 5 C-0.66 5 -1.32 5 -2 5 C-1.34 3.35 -0.68 1.7 0 0 Z " fill="#0C5899" transform="translate(22,63)"/>
<path d="M0 0 C0.33 0.66 0.66 1.32 1 2 C1.66 2.33 2.32 2.66 3 3 C2.34 3 1.68 3 1 3 C1.04125 3.721875 1.0825 4.44375 1.125 5.1875 C0.99078695 8.20729369 0.24829381 10.26935729 -1 13 C-1.33 13 -1.66 13 -2 13 C-2.16682272 8.07872966 -2.24828052 4.49656104 0 0 Z " fill="#1DA858" transform="translate(108,40)"/>
<path d="M0 0 C1.38802458 2.77604916 0.74123398 4.47238973 0.1875 7.5 C-0.06966797 8.96953125 -0.06966797 8.96953125 -0.33203125 10.46875 C-1 13 -1 13 -3 15 C-3.625 13.1875 -3.625 13.1875 -4 11 C-3.34 10.01 -2.68 9.02 -2 8 C-1.63858045 5.67085177 -1.30300475 3.33746522 -1 1 C-0.67 0.67 -0.34 0.34 0 0 Z " fill="#1C944B" transform="translate(118,58)"/>
<path d="M0 0 C1.125 3.75 1.125 3.75 0 6 C-2.0625 6.625 -2.0625 6.625 -4 7 C-4 5.35 -4 3.7 -4 2 C-2.68 1.34 -1.36 0.68 0 0 Z " fill="#0569B9" transform="translate(18,36)"/>
<path d="M0 0 C0.33 0 0.66 0 1 0 C0.88610125 1.79240663 0.75852313 3.58394835 0.625 5.375 C0.52058594 6.87160156 0.52058594 6.87160156 0.4140625 8.3984375 C0 11 0 11 -2 13 C-3.10844919 9.67465243 -2.84454356 7.37817425 -2 4 C-1.34 4 -0.68 4 0 4 C0 2.68 0 1.36 0 0 Z " fill="#E96C1A" transform="translate(66,31)"/>
<path d="M0 0 C6.125 -0.4375 6.125 -0.4375 9 1 C9 1.66 9 2.32 9 3 C5.37 3 1.74 3 -2 3 C-1.34 2.01 -0.68 1.02 0 0 Z " fill="#49697A" transform="translate(147,79)"/>
<path d="M0 0 C0.33 0 0.66 0 1 0 C2.92932559 6.10953104 0.54092546 10.48193871 -2 16 C-2.66 14.68 -3.32 13.36 -4 12 C-3.34 12 -2.68 12 -2 12 C-1.34 8.04 -0.68 4.08 0 0 Z " fill="#D05E2C" transform="translate(52,69)"/>
<path d="M0 0 C1.3609623 2.7219246 0.70366248 4.1831957 0.0625 7.125 C-0.13214844 8.03507812 -0.32679687 8.94515625 -0.52734375 9.8828125 C-0.68332031 10.58148438 -0.83929688 11.28015625 -1 12 C-1.99 12.33 -2.98 12.66 -4 13 C-3.29666462 10.02277453 -2.41751463 7.14743457 -1.4375 4.25 C-1.16808594 3.45078125 -0.89867188 2.6515625 -0.62109375 1.828125 C-0.41613281 1.22484375 -0.21117188 0.6215625 0 0 Z " fill="#E7762D" transform="translate(97,46)"/>
<path d="M0 0 C0.66 0.33 1.32 0.66 2 1 C1.34 3.97 0.68 6.94 0 10 C-1.9451 7.08235 -2.45276317 5.37462715 -3 2 C-2.01 1.34 -1.02 0.68 0 0 Z " fill="#1AAA52" transform="translate(145,43)"/>
<path d="M0 0 C0.95465783 2.16967689 1.14401212 3.56328793 0.3984375 5.82421875 C-0.35870385 7.5684743 -1.17609198 9.28627131 -2 11 C-2.66 10.01 -3.32 9.02 -4 8 C-3.649375 7.38125 -3.29875 6.7625 -2.9375 6.125 C-2.628125 5.42375 -2.31875 4.7225 -2 4 C-2.33 3.34 -2.66 2.68 -3 2 C-2.01 1.34 -1.02 0.68 0 0 Z " fill="#E17F2F" transform="translate(70,13)"/>
<path d="M0 0 C0.66 0.33 1.32 0.66 2 1 C1.67 3.97 1.34 6.94 1 10 C0.34 10 -0.32 10 -1 10 C-1.33 10.66 -1.66 11.32 -2 12 C-1 3.42857143 -1 3.42857143 0 0 Z " fill="#1F4F85" transform="translate(5,60)"/>
<path d="M0 0 C0.99 0 1.98 0 3 0 C3.33 1.98 3.66 3.96 4 6 C3.34 6 2.68 6 2 6 C1.67 6.66 1.34 7.32 1 8 C-0.35439668 5.29120665 -0.06501451 2.99066732 0 0 Z " fill="#1F71B4" transform="translate(46,42)"/>
<path d="M0 0 C0.33 0.99 0.66 1.98 1 3 C-0.4375 5.1875 -0.4375 5.1875 -2 7 C-2 6.34 -2 5.68 -2 5 C-2.99 5 -3.98 5 -5 5 C-5.33 5.66 -5.66 6.32 -6 7 C-5.67 5.68 -5.34 4.36 -5 3 C-4.34 3.33 -3.68 3.66 -3 4 C-2.67 3.01 -2.34 2.02 -2 1 C-1.34 0.67 -0.68 0.34 0 0 Z " fill="#0C63A1" transform="translate(51,37)"/>
<path d="M0 0 C0.6875 1.625 0.6875 1.625 1 4 C-0.4375 7.25 -0.4375 7.25 -2 10 C-2.66 10 -3.32 10 -4 10 C-3.52449439 8.51965236 -3.04448784 7.04074979 -2.5625 5.5625 C-2.29566406 4.73878906 -2.02882813 3.91507813 -1.75390625 3.06640625 C-1 1 -1 1 0 0 Z " fill="#2C7949" transform="translate(109,33)"/>
<path d="M0 0 C0 0.66 0 1.32 0 2 C-1.49609375 3.2890625 -1.49609375 3.2890625 -3.4375 4.625 C-4.07558594 5.07101563 -4.71367188 5.51703125 -5.37109375 5.9765625 C-7 7 -7 7 -8 7 C-8 5.35 -8 3.7 -8 2 C-2.25 0 -2.25 0 0 0 Z " fill="#1F9747" transform="translate(118,29)"/>
<path d="M0 0 C0.99 0 1.98 0 3 0 C3 1.32 3 2.64 3 4 C4.32 4.66 5.64 5.32 7 6 C4 8 4 8 0 9 C0.66 6.36 1.32 3.72 2 1 C1.34 0.67 0.68 0.34 0 0 Z " fill="#17AF4F" transform="translate(112,33)"/>
<path d="M0 0 C0.33 0 0.66 0 1 0 C1.33 1.65 1.66 3.3 2 5 C2.66 4.67 3.32 4.34 4 4 C4 4.99 4 5.98 4 7 C2.35 7.33 0.7 7.66 -1 8 C-0.67 5.36 -0.34 2.72 0 0 Z " fill="#4BAC69" transform="translate(117,68)"/>
<path d="M0 0 C0.33 0 0.66 0 1 0 C1.16682272 4.92127034 1.24828052 8.50343896 -1 13 C-1.33 13 -1.66 13 -2 13 C-2.33 11.02 -2.66 9.04 -3 7 C-2.34 7 -1.68 7 -1 7 C-0.67 4.69 -0.34 2.38 0 0 Z " fill="#CD6022" transform="translate(55,56)"/>
<path d="M0 0 C2.17520782 3.26281174 2.28244319 4.2340908 2 8 C1.67 8.99 1.34 9.98 1 11 C0.34 11 -0.32 11 -1 11 C-1.125 3.375 -1.125 3.375 0 0 Z " fill="#EE7325" transform="translate(57,53)"/>
<path d="M0 0 C2.31 0 4.62 0 7 0 C6.625 2.9375 6.625 2.9375 6 6 C5.01 6.495 5.01 6.495 4 7 C4 5.02 4 3.04 4 1 C2.68 0.67 1.36 0.34 0 0 Z " fill="#D26C27" transform="translate(100,13)"/>
<path d="M0 0 C0.66 0.33 1.32 0.66 2 1 C1.34 1.66 0.68 2.32 0 3 C-0.64767793 5.57061311 -0.64767793 5.57061311 -1 8 C-3 7 -3 7 -3.6875 5.0625 C-4 3 -4 3 -3 1 C-2.01 0.67 -1.02 0.34 0 0 Z " fill="#29465B" transform="translate(147,81)"/>
<path d="M0 0 C0.66 0.33 1.32 0.66 2 1 C2.625 3.0625 2.625 3.0625 3 5 C1.824375 4.9690625 1.824375 4.9690625 0.625 4.9375 C-1.98114961 4.81315937 -1.98114961 4.81315937 -4 6 C-3.67 4.35 -3.34 2.7 -3 1 C-2.67 1.66 -2.34 2.32 -2 3 C-1.34 3 -0.68 3 0 3 C0 2.01 0 1.02 0 0 Z " fill="#19AF51" transform="translate(114,72)"/>
<path d="M0 0 C0.66 0 1.32 0 2 0 C1.67 1.32 1.34 2.64 1 4 C-2.75 5.125 -2.75 5.125 -5 4 C-3.35 3.34 -1.7 2.68 0 2 C0 1.34 0 0.68 0 0 Z " fill="#0E4679" transform="translate(37,85)"/>
<path d="M0 0 C0.33 0 0.66 0 1 0 C1 1.65 1 3.3 1 5 C0.34 5 -0.32 5 -1 5 C-1 5.66 -1 6.32 -1 7 C-1.99 7.33 -2.98 7.66 -4 8 C-2.87548273 5.0280615 -1.77706209 2.66559313 0 0 Z " fill="#D2794D" transform="translate(66,66)"/>
<path d="M0 0 C0.99 1.485 0.99 1.485 2 3 C2.99387334 4.33790641 3.9926892 5.67218122 5 7 C4.67 7.66 4.34 8.32 4 9 C2.68 8.34 1.36 7.68 0 7 C0 4.69 0 2.38 0 0 Z " fill="#169A45" transform="translate(109,43)"/>
</svg>
