<?xml version="1.0" encoding="UTF-8"?>
<svg version="1.1" xmlns="http://www.w3.org/2000/svg" width="400" height="120">
<path d="M0 0 C8.14997953 4.66368434 11.23249758 14.01611594 15.26953125 22.12890625 C16.04864868 23.69330444 16.04864868 23.69330444 16.84350586 25.28930664 C20.52167385 32.69740076 24.17010029 40.11972867 27.76953125 47.56640625 C28.44834351 48.95762695 28.44834351 48.95762695 29.14086914 50.37695312 C36.84568839 66.43170056 36.84568839 66.43170056 34.70703125 75.12890625 C32.34533808 79.67735235 29.55733051 83.25653005 24.70703125 85.12890625 C19.9099827 85.72086069 15.12226413 85.66805126 10.296875 85.625 C8.882532 85.62515514 7.46818858 85.62664652 6.05384827 85.62940979 C3.09747398 85.63079054 0.14158677 85.61828944 -2.81469727 85.59545898 C-6.59654499 85.56704854 -10.37758574 85.56982272 -14.15949345 85.5825491 C-17.0772537 85.58951618 -19.99482865 85.58170582 -22.91256523 85.56929207 C-24.30675991 85.56478936 -25.70097456 85.56443043 -27.09517097 85.56835747 C-29.04533304 85.57128012 -30.99549095 85.55256526 -32.94555664 85.53295898 C-34.05330948 85.527556 -35.16106232 85.52215302 -36.30238342 85.5165863 C-40.95388827 84.91359543 -44.1414597 82.74637208 -47.04296875 79.12890625 C-50.42147089 74.62423673 -50.85904175 70.62972677 -50.29296875 65.12890625 C-49.06274414 61.69042969 -49.06274414 61.69042969 -47.328125 58.23828125 C-47.01529068 57.60307556 -46.70245636 56.96786987 -46.38014221 56.31341553 C-45.70895723 54.95163398 -45.03154945 53.59290457 -44.34844971 52.23706055 C-42.91844142 49.38084784 -41.54379176 46.4992749 -40.16610718 43.61755371 C-38.73184972 40.62248305 -37.28166994 37.63524219 -35.83129883 34.64794922 C-34.72526824 32.3681869 -33.62334469 30.08646776 -32.52148438 27.8046875 C-20.66766717 3.32467288 -20.66766717 3.32467288 -15.29296875 0.12890625 C-10.27434464 -1.54396845 -5.01336757 -1.90456724 0 0 Z " fill="#5EFDC9" transform="translate(180.29296875,16.87109375)"/>
<path d="M0 0 C6.48540492 4.51189579 9.62675773 13.10758484 13 20 C13.61004883 21.23363281 13.61004883 21.23363281 14.23242188 22.4921875 C15.22118847 24.49298578 16.20613481 26.495564 17.1875 28.5 C17.69539063 27.46101563 18.20328125 26.42203125 18.7265625 25.3515625 C30.55361114 1.29909258 30.55361114 1.29909258 38.1875 -1.5 C43.15405596 -2.25299397 47.55594426 -2.18182652 52.0625 0.1875 C56.08471055 3.16393581 58.59726047 5.7292814 60.1875 10.5 C61.24556182 18.05772386 58.84712274 23.44158866 55.4375 30.0625 C54.70237183 31.54230347 54.70237183 31.54230347 53.95239258 33.05200195 C52.9125025 35.13984837 51.86454193 37.22369208 50.80908203 39.30371094 C49.18797897 42.49905591 47.58907199 45.7046151 45.99609375 48.9140625 C43.55223135 53.83159971 41.0961924 58.74265166 38.61767578 63.64282227 C37.60060129 65.67471417 36.60074526 67.71526457 35.61279297 69.76147461 C35.09217285 70.83276611 34.57155273 71.90405762 34.03515625 73.0078125 C33.56730713 73.98250488 33.09945801 74.95719727 32.61743164 75.96142578 C30.29674979 80.08135918 27.41883799 82.384331 23.1875 84.5 C17.63218752 85.0072965 12.76919764 85.26260422 7.6875 82.8125 C3.15144531 78.61664941 0.27267587 74.08055297 -2.3515625 68.53125 C-2.8358522 67.52792633 -2.8358522 67.52792633 -3.32992554 66.5043335 C-4.37275974 64.33948861 -5.40595091 62.17024265 -6.4375 60 C-7.51001468 57.7519573 -8.58325937 55.50426439 -9.65667725 53.25665283 C-10.36871883 51.7651798 -11.07986312 50.27327805 -11.7901001 48.78094482 C-13.82308784 44.52115316 -15.91602147 40.30172379 -18.0859375 36.109375 C-27.27004333 18.21383991 -27.27004333 18.21383991 -24.8125 8.5 C-23.06394758 4.34990878 -20.74095146 2.16934873 -17.125 -0.4375 C-11.4149359 -2.26902999 -5.51030259 -2.70702638 0 0 Z " fill="#5EFDC9" transform="translate(72.8125,17.5)"/>
<path d="M0 0 C0.81927475 -0.00570007 1.6385495 -0.01140015 2.48265076 -0.01727295 C4.2219005 -0.02673162 5.96116824 -0.03326037 7.70043945 -0.03710938 C10.33642944 -0.04674825 12.97161721 -0.07773447 15.60742188 -0.109375 C17.30077664 -0.115912 18.99413697 -0.12115973 20.6875 -0.125 C21.8552169 -0.1435202 21.8552169 -0.1435202 23.04652405 -0.16241455 C31.7389736 -0.12780063 38.73002137 2.26196731 45.08203125 8.234375 C50.54325272 14.46165017 52.14639631 21.4548482 52.015625 29.55078125 C51.37562561 37.75001867 47.97279115 43.79722172 41.80859375 49.203125 C35.20645836 53.46495121 29.33792313 54.35496359 21.55859375 54.265625 C20.81351562 54.26111328 20.0684375 54.25660156 19.30078125 54.25195312 C17.47001735 54.24021746 15.63929502 54.2222835 13.80859375 54.203125 C13.82954102 54.80261963 13.85048828 55.40211426 13.87207031 56.01977539 C13.95584649 58.76821742 14.00744519 61.51638992 14.05859375 64.265625 C14.10886719 65.68004883 14.10886719 65.68004883 14.16015625 67.12304688 C14.24801068 73.42660258 13.51111064 77.05886022 9.80859375 82.203125 C5.96502554 86.04669321 2.62440349 86.53669636 -2.62890625 86.765625 C-7.62271495 86.60049336 -10.90164131 85.99242052 -14.82421875 82.8828125 C-18.41558142 78.47056693 -19.56804282 74.351948 -19.59545898 68.7421875 C-19.60814316 67.48067871 -19.62082733 66.21916992 -19.63389587 64.91943359 C-19.63184438 63.55566238 -19.6288563 62.1918923 -19.625 60.828125 C-19.62956608 59.41617584 -19.63487292 58.0042289 -19.6408844 56.59228516 C-19.64979574 53.64020734 -19.64741462 50.68840034 -19.63745117 47.73632812 C-19.62595468 43.96344338 -19.64619208 40.19149366 -19.67536831 36.41873169 C-19.69376001 33.50522989 -19.6934322 30.59195107 -19.68773079 27.67840576 C-19.68757798 26.28780809 -19.6935886 24.89719492 -19.70602226 23.50665283 C-19.8093001 10.06573498 -19.8093001 10.06573498 -15.19140625 5.203125 C-9.98527279 0.61676934 -6.79408025 0.0364273 0 0 Z " fill="#5FFDC9" transform="translate(251.19140625,15.796875)"/>
<path d="M0 0 C3.34923587 2.33667619 5.90980929 4.17243657 7.6875 7.875 C8.44064573 12.95245374 8.36747047 18.0065569 8.31640625 23.125 C8.31723574 24.62662935 8.31969816 26.12825861 8.32371521 27.62988281 C8.32656744 30.77046174 8.31192977 33.91032522 8.28442383 37.05078125 C8.25034087 41.06585581 8.25636408 45.07965182 8.2750864 49.0947876 C8.28568153 52.19362953 8.27669603 55.29217665 8.26170158 58.39099121 C8.25653767 59.87088138 8.25697976 61.35080257 8.26324654 62.83068848 C8.26872974 64.9034183 8.24822991 66.9743504 8.22094727 69.046875 C8.21474869 70.2234668 8.20855011 71.40005859 8.2021637 72.61230469 C7.43145545 77.49818689 5.19624604 80.68758423 1.33984375 83.72265625 C-3.69041754 85.90811587 -8.94660514 85.4764668 -14.3125 84.875 C-19.31945773 82.59112454 -21.5945801 79.58814505 -24.3125 74.875 C-24.82043457 71.73292542 -24.82043457 71.73292542 -24.83007812 68.33813477 C-24.84268677 67.05983292 -24.85529541 65.78153107 -24.86828613 64.4644928 C-24.86112507 63.08179164 -24.85292078 61.69909554 -24.84375 60.31640625 C-24.84644802 58.88443234 -24.85033302 57.45246023 -24.85534668 56.02049255 C-24.86122918 53.02544643 -24.85272119 50.03087894 -24.83398438 47.03588867 C-24.81121532 43.2115004 -24.82431144 39.38823641 -24.84827423 35.5638895 C-24.86278427 32.60828811 -24.8581023 29.65294968 -24.84776306 26.69734001 C-24.84510902 25.28804323 -24.84831869 23.87872199 -24.85768127 22.46945381 C-24.92901934 8.71289523 -24.92901934 8.71289523 -20.3125 2.875 C-14.0200803 -2.03308737 -7.53271481 -2.5582805 0 0 Z " fill="#5FFDC9" transform="translate(342.3125,17.125)"/>
<path d="M0 0 C0.83778992 0.0028299 1.67557983 0.00565979 2.53875732 0.00857544 C5.20827663 0.01974901 7.8774575 0.04484829 10.546875 0.0703125 C12.35937015 0.08034596 14.17187056 0.08947117 15.984375 0.09765625 C20.42200493 0.1196791 24.85938263 0.15418946 29.296875 0.1953125 C28.966875 1.1853125 28.636875 2.1753125 28.296875 3.1953125 C27.52601563 3.17210937 26.75515625 3.14890625 25.9609375 3.125 C24.45660156 3.09792969 24.45660156 3.09792969 22.921875 3.0703125 C21.92414063 3.04710937 20.92640625 3.02390625 19.8984375 3 C17.13425327 2.92314402 17.13425327 2.92314402 15.296875 5.1953125 C13.30866187 5.59295513 11.30743161 5.93306599 9.296875 6.1953125 C8.966875 5.2053125 8.636875 4.2153125 8.296875 3.1953125 C4.88031476 3.02853968 4.88031476 3.02853968 1.296875 3.1953125 C0.636875 3.8553125 -0.023125 4.5153125 -0.703125 5.1953125 C-2.8671875 5.390625 -2.8671875 5.390625 -5.328125 5.3203125 C-6.14539063 5.30226563 -6.96265625 5.28421875 -7.8046875 5.265625 C-8.43117187 5.24242187 -9.05765625 5.21921875 -9.703125 5.1953125 C-9.703125 4.5353125 -9.703125 3.8753125 -9.703125 3.1953125 C-10.693125 2.8653125 -11.683125 2.5353125 -12.703125 2.1953125 C-8.77654789 -0.46849216 -4.54924891 -0.05793529 0 0 Z " fill="#75F2C7" transform="translate(251.703125,15.8046875)"/>
<path d="M0 0 C0.99 0.33 1.98 0.66 3 1 C3.33 6.28 3.66 11.56 4 17 C3.01 17.33 2.02 17.66 1 18 C0.67 18.66 0.34 19.32 0 20 C-2.18906373 16.46448834 -2.26870816 13.54861926 -2.25 9.4375 C-2.25515625 8.30183594 -2.2603125 7.16617187 -2.265625 5.99609375 C-2 3 -2 3 0 0 Z " fill="#7EEEC8" transform="translate(50,23)"/>
<path d="M0 0 C0.61875 0.33 1.2375 0.66 1.875 1 C-1.11114453 2.65896918 -3.76577791 3.42647428 -7.125 4 C-8.4553125 4.309375 -8.4553125 4.309375 -9.8125 4.625 C-12.125 5 -12.125 5 -14.125 4 C-14.75 1.9375 -14.75 1.9375 -15.125 0 C-10.67416655 -2.22541672 -4.60248787 -1.47279612 0 0 Z " fill="#71F4C8" transform="translate(342.125,17)"/>
<path d="M0 0 C12.54 0 25.08 0 38 0 C37.67 0.99 37.34 1.98 37 3 C35.68 3 34.36 3 33 3 C33 2.34 33 1.68 33 1 C31.56333984 1.10828125 31.56333984 1.10828125 30.09765625 1.21875 C20.0492912 1.93339665 10.07140647 2.11218151 0 2 C0 1.34 0 0.68 0 0 Z " fill="#89E9C9" transform="translate(243,16)"/>
<path d="M0 0 C1.58246707 -0.08153933 3.16616273 -0.13943557 4.75 -0.1875 C6.07257813 -0.23970703 6.07257813 -0.23970703 7.421875 -0.29296875 C10.44671583 0.05076316 11.75583602 1.00227459 14 3 C9.15758367 4.33583899 5.06562383 5.25328119 0 5 C0 3.35 0 1.7 0 0 Z " fill="#7CEEC8" transform="translate(168,16)"/>
<path d="M0 0 C1.81643761 3.11389304 2.2719038 5.40777709 2.25 9 C2.25515625 9.845625 2.2603125 10.69125 2.265625 11.5625 C1.98531155 14.13478811 1.2948187 15.7803108 0 18 C-2.0263374 11.40660984 -2.0263374 6.59339016 0 0 Z " fill="#7AEFCA" transform="translate(301,34)"/>
<path d="M0 0 C0.33 0 0.66 0 1 0 C1.05802698 3.43742918 1.09360486 6.87473253 1.125 10.3125 C1.14175781 11.28896484 1.15851563 12.26542969 1.17578125 13.27148438 C1.18222656 14.20927734 1.18867188 15.14707031 1.1953125 16.11328125 C1.20578613 16.97735596 1.21625977 17.84143066 1.22705078 18.73168945 C1 21 1 21 -1 24 C-2 23 -2 23 -2.09765625 21.15234375 C-2.06510417 19.1015625 -2.03255208 17.05078125 -2 15 C-1.67 15 -1.34 15 -1 15 C-0.67 10.05 -0.34 5.1 0 0 Z " fill="#6CF8C9" transform="translate(235,71)"/>
<path d="M0 0 C0.85464844 -0.01417969 1.70929688 -0.02835938 2.58984375 -0.04296875 C5.20159303 0.20046444 6.81750652 0.8696732 9.0625 2.1875 C9.0625 2.5175 9.0625 2.8475 9.0625 3.1875 C3.1225 3.1875 -2.8175 3.1875 -8.9375 3.1875 C-7.12133317 -0.44483365 -3.64376173 0.0273967 0 0 Z " fill="#7EEDC8" transform="translate(115.9375,15.8125)"/>
<path d="M0 0 C2.38948428 3.58422642 2.96014208 6.76708883 3 11 C2.0625 14.5 2.0625 14.5 1 17 C0.67 17 0.34 17 0 17 C0 11.39 0 5.78 0 0 Z " fill="#73F3C9" transform="translate(213,77)"/>
<path d="M0 0 C0.99 0 1.98 0 3 0 C3.22577402 5.4185766 2.46670113 9.77487721 1 15 C0.67 15 0.34 15 0 15 C0 10.05 0 5.1 0 0 Z " fill="#6DF8C9" transform="translate(233,56)"/>
<path d="M0 0 C1.299375 -0.02126953 1.299375 -0.02126953 2.625 -0.04296875 C5 0.1875 5 0.1875 8 2.1875 C5.22899606 3.57300197 3.0665294 3.3752467 0 3.1875 C-0.99 2.5275 -1.98 1.8675 -3 1.1875 C-3.33 2.1775 -3.66 3.1675 -4 4.1875 C-4 3.5275 -4 2.8675 -4 2.1875 C-5.32 1.8575 -6.64 1.5275 -8 1.1875 C-5.07345473 0.21198491 -3.05345004 0.02271912 0 0 Z " fill="#7FEDC8" transform="translate(64,15.8125)"/>
<path d="M0 0 C3.3 0 6.6 0 10 0 C9.67 0.99 9.34 1.98 9 3 C6.03 2.67 3.06 2.34 0 2 C0 1.34 0 0.68 0 0 Z " fill="#88E8C8" transform="translate(329,16)"/>
<path d="M0 0 C1.65 0 3.3 0 5 0 C4.34 1.98 3.68 3.96 3 6 C0 2.25 0 2.25 0 0 Z " fill="#7AEFCA" transform="translate(64,70)"/>
</svg>
